<svg width="51" height="44" viewBox="0 0 51 44" fill="none" xmlns="http://www.w3.org/2000/svg">
<path d="M25.5 11.5C27.25 4.59189 33.8595 1.06454 48.25 1.00001C48.4801 0.999145 48.708 1.04382 48.9207 1.13146C49.1334 1.21909 49.3267 1.34797 49.4894 1.51064C49.652 1.67332 49.7809 1.86658 49.8686 2.07929C49.9562 2.292 50.0009 2.51996 50 2.75001V34.25C50 34.7141 49.8156 35.1593 49.4874 35.4874C49.1592 35.8156 48.7141 36 48.25 36C34.25 36 28.8414 38.823 25.5 43M25.5 11.5C23.75 4.59189 17.1405 1.06454 2.75001 1.00001C2.51996 0.999145 2.292 1.04382 2.07929 1.13146C1.86658 1.21909 1.67332 1.34797 1.51064 1.51064C1.34797 1.67332 1.21909 1.86658 1.13146 2.07929C1.04382 2.292 0.999145 2.51996 1.00001 2.75001V34.0389C1.00001 35.1195 1.66939 36 2.75001 36C16.75 36 22.1783 38.8438 25.5 43M25.5 11.5V43" stroke="black" stroke-width="2" stroke-linecap="round" stroke-linejoin="round"/>
</svg>
