<svg width="50" height="50" viewBox="0 0 50 50" fill="none" xmlns="http://www.w3.org/2000/svg">
<path d="M35.4163 4.16629C38.1766 4.17454 40.8216 5.27473 42.7734 7.22659C44.7253 9.17845 45.8255 11.8234 45.8337 14.5837V35.4163C45.8255 38.1766 44.7253 40.8216 42.7734 42.7734C40.8216 44.7253 38.1766 45.8255 35.4163 45.8337H14.5837C11.8234 45.8255 9.17845 44.7253 7.22659 42.7734C5.27473 40.8216 4.17454 38.1766 4.16629 35.4163V14.5837C4.17454 11.8234 5.27473 9.17845 7.22659 7.22659C9.17845 5.27473 11.8234 4.17454 14.5837 4.16629H35.4163ZM35.4163 0H14.5837C6.5625 0 0 6.5625 0 14.5837V35.4163C0 43.4375 6.5625 50 14.5837 50H35.4163C43.4375 50 50 43.4375 50 35.4163V14.5837C50 6.5625 43.4375 0 35.4163 0Z" fill="black"/>
<path d="M38.5413 14.5835C37.9232 14.5835 37.319 14.4002 36.8051 14.0568C36.2912 13.7135 35.8907 13.2254 35.6542 12.6544C35.4177 12.0834 35.3558 11.455 35.4763 10.8488C35.5969 10.2426 35.8946 9.68583 36.3316 9.24879C36.7686 8.81175 37.3255 8.51412 37.9316 8.39354C38.5378 8.27296 39.1662 8.33485 39.7372 8.57137C40.3082 8.8079 40.7963 9.20844 41.1396 9.72234C41.483 10.2362 41.6663 10.8404 41.6663 11.4585C41.6672 11.8691 41.587 12.2759 41.4302 12.6554C41.2735 13.035 41.0433 13.3798 40.753 13.6702C40.4626 13.9605 40.1178 14.1907 39.7382 14.3474C39.3587 14.5042 38.9519 14.5844 38.5413 14.5835ZM25 16.6661C26.6483 16.6661 28.2595 17.1549 29.63 18.0706C31.0004 18.9863 32.0686 20.2878 32.6993 21.8106C33.3301 23.3334 33.4951 25.009 33.1736 26.6256C32.852 28.2422 32.0583 29.7271 30.8928 30.8926C29.7273 32.0581 28.2424 32.8518 26.6258 33.1734C25.0092 33.4949 23.3336 33.3299 21.8108 32.6991C20.288 32.0684 18.9865 31.0002 18.0708 29.6297C17.1551 28.2593 16.6663 26.648 16.6663 24.9998C16.6687 22.7903 17.5474 20.6719 19.1098 19.1096C20.6722 17.5472 22.7905 16.6685 25 16.6661ZM25 12.4998C22.5277 12.4998 20.111 13.2329 18.0554 14.6064C15.9998 15.9799 14.3976 17.9322 13.4515 20.2162C12.5054 22.5003 12.2579 25.0137 12.7402 27.4384C13.2225 29.8632 14.413 32.0905 16.1612 33.8386C17.9093 35.5868 20.1366 36.7773 22.5614 37.2596C24.9861 37.7419 27.4995 37.4944 29.7835 36.5483C32.0676 35.6022 34.0199 34 35.3934 31.9444C36.7669 29.8888 37.5 27.4721 37.5 24.9998C37.5 21.6846 36.183 18.5052 33.8388 16.161C31.4946 13.8168 28.3152 12.4998 25 12.4998Z" fill="black"/>
</svg>
