<svg width="291" height="267" viewBox="0 0 291 267" fill="none" xmlns="http://www.w3.org/2000/svg">
<circle cx="125" cy="125" r="125" fill="#F5E77A" fill-opacity="0.98"/>
<path d="M19.2165 167V133.496H25.5525L39.5205 160.376L39.1365 150.008V133.496H44.0325V167H37.7445L23.6805 140.408L24.1125 150.44V167H19.2165ZM64.2112 167.576C61.4912 167.576 59.1392 167.016 57.1552 165.896C55.2032 164.776 53.6992 163.192 52.6432 161.144C51.5872 159.064 51.0592 156.616 51.0592 153.8C51.0592 150.92 51.5872 148.472 52.6432 146.456C53.6992 144.408 55.2032 142.824 57.1552 141.704C59.1392 140.584 61.5072 140.024 64.2592 140.024C68.3552 140.024 71.5712 141.256 73.9072 143.72C76.2432 146.152 77.4112 149.512 77.4112 153.8C77.4112 156.616 76.8832 159.064 75.8272 161.144C74.7712 163.192 73.2512 164.776 71.2672 165.896C69.3152 167.016 66.9632 167.576 64.2112 167.576ZM64.2592 163.544C66.8192 163.544 68.8352 162.68 70.3072 160.952C71.8112 159.192 72.5632 156.808 72.5632 153.8C72.5632 150.76 71.8112 148.376 70.3072 146.648C68.8352 144.92 66.8192 144.056 64.2592 144.056C61.6672 144.056 59.6352 144.92 58.1632 146.648C56.6912 148.376 55.9552 150.76 55.9552 153.8C55.9552 156.808 56.6912 159.192 58.1632 160.952C59.6352 162.68 61.6672 163.544 64.2592 163.544ZM104.022 167V150.344C104.022 148.488 103.494 147 102.438 145.88C101.382 144.728 100.006 144.152 98.31 144.152C96.358 144.152 94.614 144.872 93.078 146.312C91.574 147.72 90.374 149.928 89.478 152.936L88.71 147.512C89.702 145.016 91.126 143.144 92.982 141.896C94.87 140.648 96.918 140.024 99.126 140.024C101.11 140.024 102.822 140.456 104.262 141.32C105.734 142.152 106.87 143.32 107.67 144.824C108.47 146.328 108.87 148.104 108.87 150.152V167H104.022ZM85.206 167V140.6H89.814L90.054 146.552V167H85.206ZM136.489 167L136.297 161V149.72C136.297 147.832 135.673 146.36 134.425 145.304C133.209 144.216 131.529 143.672 129.385 143.672C127.305 143.672 125.609 144.152 124.297 145.112C122.985 146.04 122.265 147.336 122.137 149H117.385C117.545 147.112 118.153 145.512 119.209 144.2C120.265 142.856 121.673 141.832 123.433 141.128C125.193 140.392 127.225 140.024 129.529 140.024C131.897 140.024 133.945 140.424 135.673 141.224C137.401 141.992 138.729 143.112 139.657 144.584C140.617 146.056 141.097 147.848 141.097 149.96V167H136.489ZM126.937 167.576C125.209 167.576 123.689 167.272 122.377 166.664C121.065 166.024 120.041 165.128 119.305 163.976C118.569 162.792 118.201 161.416 118.201 159.848C118.201 157.128 119.241 155.016 121.321 153.512C123.433 152.008 126.377 151.256 130.153 151.256H136.921V154.856H129.961C127.785 154.856 126.073 155.272 124.825 156.104C123.609 156.936 123.001 158.104 123.001 159.608C123.001 160.856 123.433 161.832 124.297 162.536C125.193 163.24 126.393 163.592 127.897 163.592C129.817 163.592 131.513 163.08 132.985 162.056C134.489 161 135.705 159.56 136.633 157.736L137.161 161.288C136.329 163.304 135.049 164.856 133.321 165.944C131.593 167.032 129.465 167.576 126.937 167.576Z" fill="#042753"/>
<path d="M23.4005 108.95C24.3505 108.95 25.2172 109.142 26.0005 109.525C26.7838 109.892 27.4172 110.408 27.9005 111.075V104.625H30.4005V123H28.0255L27.9505 121.075C27.4672 121.742 26.8255 122.283 26.0255 122.7C25.2422 123.1 24.3672 123.3 23.4005 123.3C22.1838 123.3 21.1088 122.992 20.1755 122.375C19.2422 121.758 18.5088 120.908 17.9755 119.825C17.4588 118.742 17.2005 117.508 17.2005 116.125C17.2005 114.725 17.4588 113.483 17.9755 112.4C18.5088 111.317 19.2422 110.475 20.1755 109.875C21.1088 109.258 22.1838 108.95 23.4005 108.95ZM23.9505 121.175C24.8505 121.175 25.6505 120.925 26.3505 120.425C27.0505 119.908 27.5672 119.217 27.9005 118.35V113.875C27.5672 112.992 27.0505 112.308 26.3505 111.825C25.6505 111.325 24.8505 111.075 23.9505 111.075C23.1172 111.075 22.3838 111.292 21.7505 111.725C21.1172 112.142 20.6172 112.733 20.2505 113.5C19.9005 114.25 19.7255 115.125 19.7255 116.125C19.7255 117.108 19.9005 117.983 20.2505 118.75C20.6172 119.5 21.1172 120.092 21.7505 120.525C22.3838 120.958 23.1172 121.175 23.9505 121.175ZM39.7853 123.3C38.3686 123.3 37.1436 123.017 36.1103 122.45C35.0769 121.867 34.2853 121.042 33.7353 119.975C33.1853 118.892 32.9103 117.6 32.9103 116.1C32.9103 114.6 33.1853 113.317 33.7353 112.25C34.3019 111.183 35.1019 110.367 36.1353 109.8C37.1853 109.233 38.4353 108.95 39.8853 108.95C42.1019 108.95 43.7519 109.567 44.8353 110.8C45.9186 112.017 46.3936 113.692 46.2603 115.825H34.9103L34.9353 113.925L43.6853 113.95C43.6186 113.067 43.2353 112.358 42.5353 111.825C41.8353 111.292 40.9519 111.025 39.8853 111.025C38.4519 111.025 37.3519 111.475 36.5853 112.375C35.8186 113.275 35.4353 114.55 35.4353 116.2C35.4353 117.183 35.6019 118.058 35.9353 118.825C36.2853 119.575 36.7853 120.158 37.4353 120.575C38.0853 120.992 38.8686 121.2 39.7853 121.2C40.8686 121.2 41.7686 120.942 42.4853 120.425C43.2186 119.908 43.6686 119.208 43.8353 118.325H46.3603C46.1436 119.875 45.4519 121.092 44.2853 121.975C43.1186 122.858 41.6186 123.3 39.7853 123.3ZM69.4048 123V104.625H71.9298V123H69.4048ZM64.3298 123V120.95H77.0298V123H64.3298ZM66.1548 106.675V104.625H70.6548V106.675H66.1548ZM89.7646 123L89.6646 119.875V114C89.6646 113.017 89.3396 112.25 88.6896 111.7C88.0562 111.133 87.1812 110.85 86.0646 110.85C84.9812 110.85 84.0979 111.1 83.4146 111.6C82.7312 112.083 82.3562 112.758 82.2896 113.625H79.8146C79.8979 112.642 80.2146 111.808 80.7646 111.125C81.3146 110.425 82.0479 109.892 82.9646 109.525C83.8812 109.142 84.9396 108.95 86.1396 108.95C87.3729 108.95 88.4396 109.158 89.3396 109.575C90.2396 109.975 90.9312 110.558 91.4146 111.325C91.9146 112.092 92.1646 113.025 92.1646 114.125V123H89.7646ZM84.7896 123.3C83.8896 123.3 83.0979 123.142 82.4146 122.825C81.7312 122.492 81.1979 122.025 80.8146 121.425C80.4312 120.808 80.2396 120.092 80.2396 119.275C80.2396 117.858 80.7812 116.758 81.8646 115.975C82.9646 115.192 84.4979 114.8 86.4646 114.8H89.9896V116.675H86.3646C85.2312 116.675 84.3396 116.892 83.6896 117.325C83.0562 117.758 82.7396 118.367 82.7396 119.15C82.7396 119.8 82.9646 120.308 83.4146 120.675C83.8812 121.042 84.5062 121.225 85.2896 121.225C86.2896 121.225 87.1729 120.958 87.9396 120.425C88.7229 119.875 89.3562 119.125 89.8396 118.175L90.1146 120.025C89.6812 121.075 89.0146 121.883 88.1146 122.45C87.2146 123.017 86.1062 123.3 84.7896 123.3Z" fill="#042753"/>
<path d="M18.3005 95V74.06H21.4805V92.3H32.4605V95H18.3005ZM47.6822 95L47.5622 91.25V84.2C47.5622 83.02 47.1722 82.1 46.3922 81.44C45.6322 80.76 44.5822 80.42 43.2422 80.42C41.9422 80.42 40.8822 80.72 40.0622 81.32C39.2422 81.9 38.7922 82.71 38.7122 83.75H35.7422C35.8422 82.57 36.2222 81.57 36.8822 80.75C37.5422 79.91 38.4222 79.27 39.5222 78.83C40.6222 78.37 41.8922 78.14 43.3322 78.14C44.8122 78.14 46.0922 78.39 47.1722 78.89C48.2522 79.37 49.0822 80.07 49.6622 80.99C50.2622 81.91 50.5622 83.03 50.5622 84.35V95H47.6822ZM41.7122 95.36C40.6322 95.36 39.6822 95.17 38.8622 94.79C38.0422 94.39 37.4022 93.83 36.9422 93.11C36.4822 92.37 36.2522 91.51 36.2522 90.53C36.2522 88.83 36.9022 87.51 38.2022 86.57C39.5222 85.63 41.3622 85.16 43.7222 85.16H47.9522V87.41H43.6022C42.2422 87.41 41.1722 87.67 40.3922 88.19C39.6322 88.71 39.2522 89.44 39.2522 90.38C39.2522 91.16 39.5222 91.77 40.0622 92.21C40.6222 92.65 41.3722 92.87 42.3122 92.87C43.5122 92.87 44.5722 92.55 45.4922 91.91C46.4322 91.25 47.1922 90.35 47.7722 89.21L48.1022 91.43C47.5822 92.69 46.7822 93.66 45.7022 94.34C44.6222 95.02 43.2922 95.36 41.7122 95.36ZM62.4239 95.36C60.9639 95.36 59.6739 95.11 58.5539 94.61C57.4539 94.09 56.6039 93.37 56.0039 92.45C55.4039 91.51 55.0939 90.39 55.0739 89.09H57.9239C57.9239 90.31 58.3339 91.27 59.1539 91.97C59.9739 92.67 61.0539 93.02 62.3939 93.02C63.5339 93.02 64.4439 92.81 65.1239 92.39C65.8239 91.95 66.1739 91.36 66.1739 90.62C66.1739 90.04 65.9739 89.58 65.5739 89.24C65.1939 88.88 64.6839 88.6 64.0439 88.4C63.4039 88.2 62.6939 88.03 61.9139 87.89C61.1539 87.73 60.3839 87.55 59.6039 87.35C58.8439 87.13 58.1439 86.86 57.5039 86.54C56.8639 86.2 56.3439 85.75 55.9439 85.19C55.5439 84.63 55.3439 83.9 55.3439 83C55.3439 82.06 55.6139 81.23 56.1539 80.51C56.6939 79.77 57.4539 79.19 58.4339 78.77C59.4339 78.35 60.6139 78.14 61.9739 78.14C64.0339 78.14 65.6839 78.62 66.9239 79.58C68.1839 80.52 68.8639 81.82 68.9639 83.48H66.1139C66.0539 82.52 65.6539 81.78 64.9139 81.26C64.1939 80.72 63.2139 80.45 61.9739 80.45C60.8139 80.45 59.9239 80.68 59.3039 81.14C58.7039 81.6 58.4039 82.18 58.4039 82.88C58.4039 83.42 58.6039 83.85 59.0039 84.17C59.4039 84.47 59.9239 84.71 60.5639 84.89C61.2039 85.05 61.9039 85.2 62.6639 85.34C63.4439 85.46 64.2139 85.62 64.9739 85.82C65.7539 86.02 66.4639 86.3 67.1039 86.66C67.7439 87 68.2539 87.47 68.6339 88.07C69.0339 88.67 69.2339 89.45 69.2339 90.41C69.2339 91.95 68.6139 93.16 67.3739 94.04C66.1339 94.92 64.4839 95.36 62.4239 95.36ZM103.697 85.58V83.6C103.697 82.74 103.437 82.05 102.917 81.53C102.397 80.99 101.647 80.72 100.667 80.72C99.4274 80.72 98.3174 81.19 97.3374 82.13C96.3574 83.05 95.5774 84.46 94.9974 86.36L94.5774 83.3C95.0174 82.16 95.5474 81.21 96.1674 80.45C96.8074 79.69 97.5374 79.12 98.3574 78.74C99.1974 78.34 100.117 78.14 101.117 78.14C102.777 78.14 104.127 78.62 105.167 79.58C106.207 80.52 106.727 81.86 106.727 83.6V85.58H103.697ZM92.5374 95V78.5H95.3874L95.5674 82.25V95H92.5374ZM117.989 95.36C116.289 95.36 114.819 95.02 113.579 94.34C112.339 93.64 111.389 92.65 110.729 91.37C110.069 90.07 109.739 88.52 109.739 86.72C109.739 84.92 110.069 83.38 110.729 82.1C111.409 80.82 112.369 79.84 113.609 79.16C114.869 78.48 116.369 78.14 118.109 78.14C120.769 78.14 122.749 78.88 124.049 80.36C125.349 81.82 125.919 83.83 125.759 86.39H112.139L112.169 84.11L122.669 84.14C122.589 83.08 122.129 82.23 121.289 81.59C120.449 80.95 119.389 80.63 118.109 80.63C116.389 80.63 115.069 81.17 114.149 82.25C113.229 83.33 112.769 84.86 112.769 86.84C112.769 88.02 112.969 89.07 113.369 89.99C113.789 90.89 114.389 91.59 115.169 92.09C115.949 92.59 116.889 92.84 117.989 92.84C119.289 92.84 120.369 92.53 121.229 91.91C122.109 91.29 122.649 90.45 122.849 89.39H125.879C125.619 91.25 124.789 92.71 123.389 93.77C121.989 94.83 120.189 95.36 117.989 95.36ZM136.901 95.36C135.201 95.36 133.721 95.01 132.461 94.31C131.221 93.59 130.261 92.59 129.581 91.31C128.901 90.01 128.561 88.49 128.561 86.75C128.561 84.97 128.911 83.44 129.611 82.16C130.311 80.86 131.291 79.87 132.551 79.19C133.811 78.49 135.281 78.14 136.961 78.14C138.301 78.14 139.501 78.39 140.561 78.89C141.641 79.37 142.511 80.06 143.171 80.96C143.851 81.86 144.241 82.93 144.341 84.17H141.311C141.151 83.05 140.671 82.19 139.871 81.59C139.091 80.97 138.121 80.66 136.961 80.66C135.881 80.66 134.941 80.91 134.141 81.41C133.341 81.89 132.721 82.58 132.281 83.48C131.841 84.38 131.621 85.47 131.621 86.75C131.621 88.65 132.101 90.14 133.061 91.22C134.041 92.3 135.321 92.84 136.901 92.84C137.621 92.84 138.291 92.7 138.911 92.42C139.531 92.14 140.061 91.74 140.501 91.22C140.941 90.68 141.241 90.06 141.401 89.36H144.461C144.261 90.6 143.801 91.67 143.081 92.57C142.381 93.45 141.491 94.14 140.411 94.64C139.351 95.12 138.181 95.36 136.901 95.36ZM155.213 95.36C153.513 95.36 152.043 95.02 150.803 94.34C149.563 93.64 148.613 92.65 147.953 91.37C147.293 90.07 146.963 88.52 146.963 86.72C146.963 84.92 147.293 83.38 147.953 82.1C148.633 80.82 149.593 79.84 150.833 79.16C152.093 78.48 153.593 78.14 155.333 78.14C157.993 78.14 159.973 78.88 161.273 80.36C162.573 81.82 163.143 83.83 162.983 86.39H149.363L149.393 84.11L159.893 84.14C159.813 83.08 159.353 82.23 158.513 81.59C157.673 80.95 156.613 80.63 155.333 80.63C153.613 80.63 152.293 81.17 151.373 82.25C150.453 83.33 149.993 84.86 149.993 86.84C149.993 88.02 150.193 89.07 150.593 89.99C151.013 90.89 151.613 91.59 152.393 92.09C153.173 92.59 154.113 92.84 155.213 92.84C156.513 92.84 157.593 92.53 158.453 91.91C159.333 91.29 159.873 90.45 160.073 89.39H163.103C162.843 91.25 162.013 92.71 160.613 93.77C159.213 94.83 157.413 95.36 155.213 95.36ZM174.994 95C173.974 95 173.104 94.8 172.384 94.4C171.664 93.98 171.124 93.39 170.764 92.63C170.404 91.87 170.224 90.98 170.224 89.96V75.38L173.254 73.73V89.96C173.254 90.44 173.324 90.88 173.464 91.28C173.604 91.68 173.874 91.99 174.274 92.21C174.694 92.43 175.304 92.54 176.104 92.54H181.054V95H174.994ZM166.324 80.96V78.5H178.414V80.96H166.324ZM196.576 95L196.456 91.25V84.2C196.456 83.02 196.066 82.1 195.286 81.44C194.526 80.76 193.476 80.42 192.136 80.42C190.836 80.42 189.776 80.72 188.956 81.32C188.136 81.9 187.686 82.71 187.606 83.75H184.636C184.736 82.57 185.116 81.57 185.776 80.75C186.436 79.91 187.316 79.27 188.416 78.83C189.516 78.37 190.786 78.14 192.226 78.14C193.706 78.14 194.986 78.39 196.066 78.89C197.146 79.37 197.976 80.07 198.556 80.99C199.156 81.91 199.456 83.03 199.456 84.35V95H196.576ZM190.606 95.36C189.526 95.36 188.576 95.17 187.756 94.79C186.936 94.39 186.296 93.83 185.836 93.11C185.376 92.37 185.146 91.51 185.146 90.53C185.146 88.83 185.796 87.51 187.096 86.57C188.416 85.63 190.256 85.16 192.616 85.16H196.846V87.41H192.496C191.136 87.41 190.066 87.67 189.286 88.19C188.526 88.71 188.146 89.44 188.146 90.38C188.146 91.16 188.416 91.77 188.956 92.21C189.516 92.65 190.266 92.87 191.206 92.87C192.406 92.87 193.466 92.55 194.386 91.91C195.326 91.25 196.086 90.35 196.666 89.21L196.996 91.43C196.476 92.69 195.676 93.66 194.596 94.34C193.516 95.02 192.186 95.36 190.606 95.36ZM211.318 95.36C209.858 95.36 208.568 95.11 207.448 94.61C206.348 94.09 205.498 93.37 204.898 92.45C204.298 91.51 203.988 90.39 203.968 89.09H206.818C206.818 90.31 207.228 91.27 208.048 91.97C208.868 92.67 209.948 93.02 211.288 93.02C212.428 93.02 213.338 92.81 214.018 92.39C214.718 91.95 215.068 91.36 215.068 90.62C215.068 90.04 214.868 89.58 214.468 89.24C214.088 88.88 213.578 88.6 212.938 88.4C212.298 88.2 211.588 88.03 210.808 87.89C210.048 87.73 209.278 87.55 208.498 87.35C207.738 87.13 207.038 86.86 206.398 86.54C205.758 86.2 205.238 85.75 204.838 85.19C204.438 84.63 204.238 83.9 204.238 83C204.238 82.06 204.508 81.23 205.048 80.51C205.588 79.77 206.348 79.19 207.328 78.77C208.328 78.35 209.508 78.14 210.868 78.14C212.928 78.14 214.578 78.62 215.818 79.58C217.078 80.52 217.758 81.82 217.858 83.48H215.008C214.948 82.52 214.548 81.78 213.808 81.26C213.088 80.72 212.108 80.45 210.868 80.45C209.708 80.45 208.818 80.68 208.198 81.14C207.598 81.6 207.298 82.18 207.298 82.88C207.298 83.42 207.498 83.85 207.898 84.17C208.298 84.47 208.818 84.71 209.458 84.89C210.098 85.05 210.798 85.2 211.558 85.34C212.338 85.46 213.108 85.62 213.868 85.82C214.648 86.02 215.358 86.3 215.998 86.66C216.638 87 217.148 87.47 217.528 88.07C217.928 88.67 218.128 89.45 218.128 90.41C218.128 91.95 217.508 93.16 216.268 94.04C215.028 94.92 213.378 95.36 211.318 95.36Z" fill="#042753"/>
<path d="M282.75 93H285L287.25 94.25L289 96L290.5 98.5L291 100L290.75 102.25L289.25 104.75L287.75 106.5L285.25 108.5L281.25 111.75L273.75 117.5L269.5 120.75L265.5 123.75L261 127.25L253.5 133L246.5 138.5L243.25 141.25L239.75 144L236.25 147L230.75 151.5L227 154.5L223.5 157L221 158.25L207.25 162.25L202.5 164L198.5 166L194.75 168.5L190.75 171.5L186.75 174.75L183.25 177.5L179 181L176.5 183L172.5 186.25L169 189L164.75 192.5L162.5 194.25L156 199.75L154 201.5L150.5 204.5L146.75 208L137 217.75L135.25 219.75L133 222.25L130.75 225.25L129.5 227.75L128.75 230L128.5 231.5V234.75L129.25 237.75L131.25 243.75L131.5 246.75L131 249.25L129.5 252L128 253.75L126 255.5L122.5 258.25L117.25 261.75L113 264L107.75 265.75L104.25 266.5L99.5005 267H94.7505L89.0005 266.5L83.7505 265.25L78.5005 263.25L74.2505 260.75L70.7505 258.25L67.7505 255.5L63.5005 251.25L60.7505 247.5L58.5005 243.5L57.0005 239.75L56.0005 236.5L55.2505 233L55.0005 231.25V223.75L55.7505 217.25L56.5005 214L57.5005 212L58.7505 210.5L61.2505 209.25L62.7505 209H70.2505L76.2505 209.75L82.0005 211L87.5005 212.75L99.7505 217.5L107.5 220.25L112 221.25L115 221L117.25 220L120 218L122 216L124 214.25L128.25 210.25L130.25 208.5L132 206.75L134 205L137.25 202.25L142 198.75L145.75 196.25L152 192L156 189.25L160.25 186.25L166 182.25L170.5 179L174.75 176L178.25 173.5L183 170L186 167.5L188.25 165.75L191.25 163L193.75 160.75L196.5 157.5L199 153.75L202.25 148.75L204.75 145.25L207 142.75L209.25 140.75L211.75 138.75L216.25 135.25L221 132L224.5 129.5L229 126.5L236 121.75L239 119.75L250.5 112.25L260 106.25L264.25 103.5L273.75 97.5L277.75 95.25L282 93.25L282.75 93ZM202.75 151.75L201.25 153.5L197.25 159.5L194.5 162.5L191 165.5L187.75 168.25L186.5 169.75L186.75 170.25L189 169L189.75 168.25V167.75L191 167.25L192.25 166.5L193.25 165L195.25 164L196.75 161.75L200.25 159.5L201.5 158.75L202.5 156L203 153.5V151.75H202.75ZM186 170.25L184.5 171L184.25 171.75L185.5 171.25L186.5 170.25H186ZM156.25 191.75L151.25 194.75L143 200.25L140 202.5L137.5 204.5L134.25 207.5L132.25 209.5L129.5 211.75L125.25 215.75L123 217.75V218.25L122 218.75L119.75 220.75L119.25 221.5L118.5 223.75L117.25 225.25L117.5 226.25L120 228.5L123.75 231.75L125.5 233.25H126.5L128 226.5L129 224.25L131 220.25L133.25 216.75L135.25 213.75L137.75 210.25L140.75 207.25L143 204.5L146 201.25L148.5 199.5L149.75 198L151 198.25L152.25 196L154 194.25L155.5 193.5L156.5 192.5L156.25 191.75Z" fill="#0E0E0E"/>
<path d="M57.7505 215.25H58.2505L59.5005 218.25L62.0005 222.25L63.7505 224.5L67.0005 228.25L69.5005 230.75L74.2505 234.25L78.0005 236.75L83.5005 239.75L87.2505 241.75L93.5005 244.25L100.75 247L107 249L109 249.5V249.75L106.75 249.5L98.2505 247L93.0005 245L85.5005 241.75L78.5005 238.5L76.2505 237.75L77.5005 238.75L81.0005 240.75L88.5005 244L91.7505 245.25L94.7505 246.5L98.0005 247.75L102.25 249.25L109.5 251.25L112.5 252L117 252.75L117.25 253L119 253.25L118.5 254.25L118 254.5L117.25 255.75L116.25 255.25H115.5L114.5 255.75L115.25 254L113.75 256L112.5 257.5L111.25 258L110.75 259.25L107.75 262L105 264.25L103.25 265H102L102.5 264L104.25 262.25H104.75L105 261.5L106.25 260.25L108.75 257.5L109.25 256.5L105.5 260.5L102.5 263.5H102L101.5 264.5L100 265.25H98.5005L99.2505 264L102 261.25L100 262.75L98.2505 264.75H97.7505V265.25H95.0005L87.5005 264.5L83.5005 263.75L78.2505 262L74.2505 259.75L71.2505 257.5L70.0005 256.5V256L69.0005 255.5L67.2505 253.75L65.5005 251.75L63.5005 249.25L62.2505 247.25L60.7505 244.25L59.7505 242.75L60.0005 242L61.2505 243L61.7505 243.75H62.2505L62.5005 242.5L63.2505 242.25L63.7505 242.5L63.5005 243.5L62.7505 244V244.75H63.2505L63.7505 243.5L65.0005 240.5H64.5005L64.0005 241.5L62.5005 242V240.75L63.7505 239.25L63.2505 238.25L61.7505 238.75L61.2505 237.75L62.2505 237.5L62.7505 236.25H63.2505V237.5L64.2505 237.25L63.7505 236.25L62.7505 235.75L64.0005 233.25V232H62.7505L62.5005 231.75V230.5H63.7505L63.5005 229.5L61.2505 227L58.7505 223.5L57.5005 222L57.0005 221.5V218.5L57.2505 217.75H57.7505L59.5005 221.75L61.2505 224.5L63.2505 227L64.5005 228.5L66.5005 230.25L68.7505 232.25L72.0005 234.25L70.7505 233L67.7505 230.75L63.5005 226.5L61.2505 223.5L58.7505 219L57.7505 216.75V215.25Z" fill="#FAFAFA"/>
<path d="M283.5 94.25H285.25L287.5 95.5L289.25 97.75L289.75 99V100.75L288.75 102.75L287 104.75L285.75 105.25V104.75H285.25V104.25L283 103.75L283.5 102.75L285.75 102.25L286.5 99.5L287.25 99V98.25L286.25 98L286 99.25L285 101.25H284.25L284.75 99L285.5 98.75L285 97.5L283 96L281.25 95.75L278.25 97.25L273.5 100.25L270 102.75L269.25 103.5L269.5 105L270.5 106.5L271.5 107H273.25L276 106L278.5 105L282.25 104.5H284.75L285 105.25L284.25 106.75L281.75 107.75V107L283.5 106.75V106L279.25 106.25L274.75 107.25L269.75 108.25L269.5 108.75L271.5 108.5L272.5 108.75L277.25 108.25L279.5 107.75H281.25L281 109L280.25 110.25L279.5 110.5L279.25 109.5H276.5L274.5 109.75H270L266 110.25L267 110.5H268.75V111.5L267.75 111.75L268.5 112.5L269.75 113V113.75L268.75 113.5L267.5 112.75V111.5L267 111.75H265.5L264.75 111.5L265 112.75L262.75 112L262.25 113.75H260.25L259.5 114.5L259 115.75L257.25 116.25L255.75 116V116.5H256.25L256.5 117.25L255.25 118L253.5 119L253 119.75H250.75L251.25 121L249.75 122.25H248L247.25 124.5L245.25 124.25L245 124.75L244.5 125V126.5L243.25 126.75L243 127.5L242.5 126.5L241.25 127L241.5 127.25L241.25 129L239.75 129.5V128.75H240.25V127.75L239.25 128.75H238.75V129.5L236.25 130L236.75 130.75L237.5 130.5L238.25 130.75V131.25L233.75 132.25L233.25 133.25L234.25 133V132.5H235.5L235.25 133.5H234.25V134.25H233.5V133.5H232.75L232.25 135L231.25 135.25V133.75H230.75V135.25L230 136L229.5 135.75V136.25H230L229.5 137.25L228.75 138L228.25 138.75H227.25L227.5 137.25L228.75 136.5L227.75 136L227.25 137.25H226.75V137.75L225.5 138.75H225L224.5 139.75L223.75 140.5H223.25V141.5L222.25 141.25H221.75L222.25 142L220.75 143L220.25 144.25H219.5V143.5H219L219.25 144.5H217.75L217.5 145.5L217.25 146.25L216.5 146.5L216 148H215.5V146.75L214.75 147L214.25 148.25L213.25 148.75L211.75 148.5V149H211.25V149.5L212.5 149.75L213 150.25L211.25 150.5L210 151H209L209.75 151.5L208.75 152L208.5 152.5L207.25 152.75V153.5H206.5L206.25 155.25L205.5 155.5V154.25L204 156.25L203.25 157L203 158.25L202.5 157.75L202.25 156L202.75 153.5V152V151.25L204.5 148.5L207.5 145L210.5 142.25L214.75 139L219.5 135.5L232 127L241 121L253.5 113L258.75 109.5L267.25 103.5L274.75 98.5L279.5 95.75L281.75 94.75L283.5 94.25Z" fill="#FAFAFA"/>
<path d="M264.75 111.25L266.75 111.75V113H264.75L265.25 114.75H264.5V115.5L266.75 115.75L266.5 116.75L265.5 117.25L265.25 117.75H264.75L264.25 116.75L263.25 117L264.5 118L264.25 118.75L263.5 119.5L263 119.25L263.25 118.75L261.5 119.5L261.75 120.75L261.25 121.75H259.5V121H260V120.5H260.5V119L260 118.75L259.5 120L259 121L258.75 120.5H258L258.75 121.5V122H259.5L259.25 122.5H257.75L257 122.25L257.25 123H255.5L254.25 122.75L254.75 123.75V124.75H255.5L255.25 125.75L254.25 125.5V125L253 124.75L252 124L252.75 125V125.75L251.5 126.25H250L250.5 126.5V127.25L249.75 127.5V128.25L248.75 128.75L248.25 129.5L248.5 130.5L246 130.25L247.25 130.75V131.5L246.5 131.25L246.25 131.75L243.75 132V132.5L244.5 133.25L243.5 133.75H242.5L241.5 134L240.5 133.5L241.25 134.75V135.5L239.75 135H239.5V135.5H238.5V136.25H238V136.75L239.5 136.5L239.75 137.5L238 138L236.75 137.5H236.25V138H236.75V138.5L235.5 138.75V138H234.75L234.25 139.25H233.75V139.75L232.25 140.25V140.75L233.5 140.25L234.75 139L235.25 138.75L235 139.75L234.5 140.75L233.75 141L233.25 141.75L232 142.25L231.75 141.5H231L230.75 142.5L229.25 142.75H228.75L228.25 143.75H226.75V143L225.75 143.5V145L226.25 144.75L227.25 145L227.5 146H226.75L227 145.5L224.5 146.5L224 148.25L221.75 149.25H221.25L220.75 148.75L220.5 149.5L219 149.75L218.75 150.25L218 150L216.25 151V151.5L217.25 152L216.75 152.75L215 153.25V154.25L213.5 154.75L212.25 155L211.25 155.75V155L209.75 155.25V156L210.25 156.25L207.25 157.75L206.25 157.5L206.75 156.5L206 157L205 156.75V156L204.25 156.75L204 156L205.5 154L205.75 155L205.5 155.5L206 155.25L206.5 153.5H207.25V152.75L208.5 152.5L208.75 151.75L209 151.5V151L211.25 150.25H212.5L212 149.75L211.25 149.5V149H211.75V148.5H213.25L214 148.25L214.5 147L215 146.5L215.75 147.25L215.5 148H216L216.25 146.5L217.25 146.25L217.5 145.25L217.75 144.5L218.75 144.25L219.25 144.5L219 143.5H219.5V144.25H220.25L220.75 142.75L222 142L221.5 141H222.25L223.25 141.5V140.5L224.25 140.25L224.75 139.25L226 138L226.75 137.75V137.25H227.25L227.5 136H228.5L229 136.75L227.75 137.25L227.25 138.75L228.25 138.5L229 137.25H229.5L229.75 136.5L229.5 136.25V135.75L230.5 135.25L230.75 133.75L231.5 133.5L231.25 135.25L232.25 134.75L232.75 133.25L233.5 133.5V134.25H234.25V133.5H235.25L235.5 132.5H234.25V133L233.25 133.25L233.5 132.25L235 131.75L237 131.25H238.25V130.75L236.5 131L236.25 130L237.75 129.5H238.75V128.75L239.75 127.75H240.25V128.75L239.75 129.25L241.25 129V127.5V126.75L242.5 126.5L243 127.25L243.25 126.75L244.25 126.5V125L245.25 124.25L247.25 124.5L247.75 122.25L248 122H249.75L251 121L250.75 119.75L251.75 119.5H253L254.25 118.25L256.25 117.25V116.5H255.75V116H257.75L259 115.5L259.5 114.25L260.25 113.5H262.25L262.75 111.75L264.75 112.5L264.5 111.5L264.75 111.25Z" fill="#0F0F0F"/>
<path d="M73.2505 238.25L75.7505 238.75L81.7505 242L84.2505 243.5L89.5005 246L93.5005 247.5L95.7505 248L97.7505 249L98.0005 249.5L98.2505 249.25H99.5005L99.2505 250.5L98.5005 251.5L98.2505 252.25H99.2505V252.75H101.5V253.25L99.2505 253.5L96.7505 253.25L97.0005 254L98.7505 254.5V255.25L97.5005 256L97.2505 256.5L99.2505 256.75L99.7505 257.5L96.5005 257L96.0005 257.25L95.5005 256.5H93.7505L94.0005 257.5L96.0005 257.75L96.5005 258.5L94.7505 259L93.7505 260.5H91.7505L90.5005 260.25L91.0005 261.5L94.0005 262.25V262.75L91.7505 262.5L90.5005 262H89.0005L88.7505 263.5H87.0005L86.7505 263L88.0005 262.25V261.5L86.5005 261.75L86.2505 262.75L84.0005 262.25L77.7505 259.25L75.7505 258.25L73.2505 256.75L71.7505 255.5V255L73.0005 255.5L76.5005 257.5L77.7505 257.75L77.5005 256.25L75.7505 255.75L74.5005 254.75L72.7505 253.75L70.5005 252L70.2505 251.25L71.2505 251.5L73.7505 253L75.5005 254L77.2505 254.75V255.25L79.5005 256L81.5005 257L83.0005 258H83.7505V257H83.2505V256.5H82.0005L81.0005 255.75L79.0005 254.75L78.5005 254.25H77.0005L76.5005 253L74.7505 252.5L73.5005 251.25L72.0005 250L72.2505 249.25L72.5005 249.75H73.0005V250.25L74.2505 250.75L76.2505 251L76.7505 252L78.5005 252.25L78.0005 251L76.2505 250.25L76.0005 249.5L74.7505 249L73.2505 248V247H74.5005L77.0005 248.75L79.0005 250L80.0005 250.25L81.2505 251.5L82.5005 252L83.0005 252.5L87.0005 253.75L86.7505 253L83.5005 251.5L82.2505 250.75L80.5005 250L79.5005 249L77.7505 248.25L76.0005 247L74.5005 246.25L73.2505 245L72.2505 245.25L71.7505 246.25L71.0005 246.5L71.5005 245.25L73.2505 242.25L74.2505 240L73.7505 239L73.2505 238.75V238.25Z" fill="#151515"/>
<path d="M65.2505 210.5H70.2505L77.0005 211.25L83.5005 212.75L90.7505 215.25L100 219L103.75 220.5L109.5 222.25L111 222.5H114.25L118.25 221.5L119 221L119.75 221.25L118.75 223.75L117.5 225.25L117.75 226.25L119.75 228L122.25 230.25L125 232.5L125.5 233L126.75 233.5L127.5 236.75L126.75 237L126.25 235L123.5 232.25L121 231.25L119.75 230.5L117.25 229.5L114.25 228.25L110.25 226.25L104 223.5L101.25 222.25L99.2505 221.5V222L97.7505 222.25V222.75L96.0005 222.5L94.5005 222V222.5L92.5005 222.75L92.0005 222L91.7505 222.5H90.5005L89.7505 221.75V221.25H91.2505V220.75H88.5005L86.2505 220.5L83.7505 219.5L83.2505 219L79.5005 218L76.2505 216L75.5005 215.25L77.0005 215.5L80.2505 216.5L79.5005 216L77.2505 215.5L76.0005 215L74.7505 214.75L74.2505 215.25L71.7505 214.25L69.5005 214L68.2505 213.5L67.5005 213L67.7505 214.25L68.5005 214.5L68.2505 215.75L67.2505 215.25L66.5005 214.5L66.2505 212.75L65.2505 212.5L64.5005 212.25L62.5005 212.5L62.2505 213L64.5005 213.75L65.5005 214L66.2505 214.5L66.0005 215.25L62.7505 214.25L61.5005 214L60.7505 213.25L61.7505 212L63.7505 210.75L65.2505 210.5Z" fill="#FAFAFA"/>
<path d="M239.25 134.5L241.5 135.75V135.25H242.25L243 136.5L242.5 136.75V137.75H243L242.75 138.25L241.75 138.75L241.25 138.5V136.75L240.5 137L240.75 138.5L239.75 138.75L239.25 140.25H238.75V139.75H238.25L238 141L238.5 141.25L237.5 141.75L237.25 140L236.5 139.75L236.75 140.5V141.25L237 142.25L237.25 143L236.25 143.5V142L235.25 142.25L235.5 143.5H234.75L234 142.75L233.5 144L232.75 144.25L233.25 144.5L233 145.5L232.25 145.25L232 144.25H231.5V145L230.5 145.5L230 147L229.5 146.5V145.75L228.5 146V147L227 147.75H226.5L226.75 149H227.25L227.5 147.75H228L228.5 149L229.25 149.25L229 150L226.5 149.75V150.25L225.75 150.5V150L225.25 149.75L225 150.5L224 151H222.5L222 152.25L221.25 152.5V153.75L222 153.5L222.75 151.5L223.5 151.75L223.25 153H222.75V153.5H223.25L223 154L221.25 154.25V154.75H220.75V154L219 154.75L217.25 155L217 156L215.5 157.75L214.5 158L214.25 157.75V155.75L213.5 156L213.75 156.25L213.5 158L213 158.25L212.75 157.5L212.25 158.75L211 158.25L210.25 159.5H209.75V159L207.5 160.25L204.25 161.5H202.75L203.25 160.25L203.75 159.5H202.5V158.75L203.75 159L206 158.25L208.5 156.75L210 156.25L209.5 155.25L210.25 154.75L211.5 155L211.75 155.25L212.75 154.5L214.5 154.25L215.25 153.5L214.75 153.25L216.25 152.5H216.75L217 152L216 151.5L216.25 150.75L218.25 149.75H219L220.5 149.5L220.75 148.5L221.25 148.75V149.25L224.25 147.75V146.5L225.5 145.75L227 145.5L227.25 146L227 145L225 145.5L225.25 145H225.75L225.5 143.5L227 142.5L227.25 143H226.75L227.25 143.5H228.25L229 142.25L229.25 142.75L230.75 142.25L231 141.5H231.75L232.25 142L233.25 141.5L235 139.5L234.75 139.25L233.5 140.5L232.5 140.75L232 141.75L231.75 140.75L232.25 140L233.75 139.75V139.25H234.25L234.75 137.75L235.75 138L235.5 138.75L236.75 138.5V138H236.25V137.5L237.25 137.25L238.25 137.75L239.5 137.25L239.25 136.75H238V136.25H238.5V135.5H239.5L239.25 134.5Z" fill="#E5E5E5"/>
<path d="M57.2505 222L58.0005 222.25L60.5005 225.5L62.2505 227.75L63.7505 229.5L64.2505 231L62.5005 230.5L62.7505 231.75H64.2505V233.25L63.0005 235.75L64.2505 236.5V237.25L63.2505 237.5V236.25L62.5005 237L62.2505 237.5L61.5005 238L62.0005 239.25L62.5005 239.5L62.2505 240.5L61.2505 241.75H60.2505L58.7505 240L58.5005 238.5L59.0005 237.75L60.2505 237.25L61.0005 235.5L61.7505 233.5H62.2505L62.0005 233L60.7505 233.75L59.5005 234L59.0005 234.75V235.5L59.5005 234.75H60.2505L60.5005 235.5L59.7505 235.75L59.2505 237L58.2505 237.25L57.7505 235.75V234.5H58.2505V234L57.5005 233.75L57.2505 232.75V230.25L57.5005 230L56.7505 229.25V227.5L57.0005 226.75V225.75L58.2505 227L59.2505 228.5V229.25H59.7505L59.0005 227.25L57.5005 225L57.0005 224.75L56.7505 222.75L57.2505 222Z" fill="#1F1F1F"/>
<path d="M276.5 110L277.5 110.5L277.75 111L276.75 110.75V112.25H276.25V112.75L275.5 113.25H274.75V113.75L272.5 114.5L271.25 115.25L271.75 116L271 116.75L270.25 116.5L270 117.25L267.75 118L266.75 118.75L266.5 120.5H265.5L264.75 120V120.5L263.75 120.75L263.5 121.25L264.25 121.5V122.25L262.75 122L262.25 123H261L260.5 122.75V124.5L260 125L258.75 125.25L257 124V123.5L255 123.75L254.5 123L255.5 122.75H257L256.75 122L259.25 122.25L259.5 122H258.75L257.5 120L258.75 120.5L259 120.75L260 118.75L260.75 119L260.5 120.5H260V121H259.5V121.75L260.75 121.5L261.25 121.75L261.5 120.25L261.25 119.25L262.25 118.75H263.25L263.5 119L264.25 118.5V118L263 117.25L263.5 116.5L264.5 116.75L264.75 117.75H265.25L265.5 117L266.5 116.5L266.75 115.75L264.5 115.5V114.75L266.75 114.5L267.5 115L268.5 114.75L269.75 114.25L270.25 113.5L270 112.25L269 111.25L269.25 110.5L275.25 110.25L276.5 110Z" fill="#F7F7F7"/>
<path d="M239.25 134.5L241.5 135.75V135.25H242.25L243 136.5L242.5 136.75V137.75H243L242.75 138.25L241.75 138.75L241.25 138.5V136.75L240.5 137L240.75 138.5L239.75 138.75L239.25 140.25H238.75V139.75H238.25L238 141L238.5 141.25L237.5 141.75L237.25 140L236.5 139.75L236.75 140.5V141.25L237 142.25L237.25 143L236.25 143.5V142L235.25 142.25L235.5 143.5H234.75L234 142.75L233.5 144L232.75 144.25L233.25 144.5L233 145.5L232.25 145.25L232 144.25H231.5V145L230.5 145.5L230 147L229.5 146.5V145.75L228.5 146V147L227 147.75H226.5V148.25L225.5 148.75L224.5 148.5L224.25 149L223.25 148.25L224.25 147.75V146.5L225.5 145.75L227 145.5L227.25 146L227 145L225 145.5L225.25 145H225.75L225.5 143.5L227 142.5L227.25 143H226.75L227.25 143.5H228.25L229 142.25L229.25 142.75L230.75 142.25L231 141.5H231.75L232.25 142L233.25 141.5L235 139.5L234.75 139.25L233.5 140.5L232.5 140.75L232 141.75L231.75 140.75L232.25 140L233.75 139.75V139.25H234.25L234.75 137.75L235.75 138L235.5 138.75L236.75 138.5V138H236.25V137.5L237.25 137.25L238.25 137.75L239.5 137.25L239.25 136.75H238V136.25H238.5V135.5H239.5L239.25 134.5Z" fill="#F4F4F4"/>
<path d="M77.5005 214H79.2505L84.0005 216.5L86.0005 217.5L87.7505 218.25L89.7505 218.75L91.0005 219.5L91.5005 219.25L93.0005 219.5L93.5005 219.25L90.2505 217.25L90.5005 216.75L94.5005 219L95.0005 219.5L99.0005 221L99.2505 222L97.7505 222.25V222.75L96.0005 222.5L94.5005 222V222.5L92.5005 222.75L92.0005 222L91.7505 222.5H90.5005L89.7505 221.75V221.25H91.2505V220.75H88.5005L86.2505 220.5L83.7505 219.5L83.2505 219L79.5005 218L76.2505 216L75.5005 215.25L77.0005 215.5L80.2505 216.5L79.5005 215.75L80.2505 215.25L77.7505 214.5L77.5005 214Z" fill="#E1E1E1"/>
<path d="M112.25 252L117 252.75L117.25 253L119 253.25L118.5 254.25L118 254.5L117.25 255.75L116.25 255.25H115.5L114.5 255.75L115.25 254L113.75 256L112.5 257.5L111.25 258L110.75 259.25L107.75 262L105 264.25L103.25 265H102L102.5 264L104.25 262.25H104.75L105 261.5L106.25 260.25L108.75 257.5L109.75 255.75L112 252.5L112.25 252Z" fill="#F5F5F5"/>
<path d="M148.25 199.5L148.5 200.25L148 201.5L146.5 202.5H147.75L148.5 203.25L148.25 204.5H147.75L147.25 205.5L146.5 206.25H146L145.75 207L144.5 207.75L143.25 209L142.25 210.25L140.75 211.5H139.25L140.5 210.25L142.5 208.75L142.75 208L144.25 207V206.25L143.75 205.75H142.75L138.25 211.25L137.75 212H137.25V212.75H136.75L136.5 213.75L135 215.75H134.5L134 216.75L131 221.25L129.75 223.25L129.5 222.5L131 219.75L135 213.75L137.5 210.25L140.5 207.25L142.75 204.5L145.75 201.25L148.25 199.5Z" fill="#262626"/>
<path d="M119 221L119.75 221.25L118.75 223.75L117.5 225.25L117.75 226.25L119.75 228L122.5 230.5L122 230.75L119.25 229L113.5 226L107.75 223.25L106.75 222.5V222L107.75 221.75L111 222.5H114.25L118.25 221.5L119 221Z" fill="#FAFAFA"/>
<path d="M126.25 252L126.5 252.75L123.75 254.75L120.75 257.5L117.25 259.75L114.25 261L111.5 262.25L108.75 263.25L107.25 263.5L108 262.5L109 262L109.5 261L111 259.75L111.5 258.75L112.75 258.25L114.25 258.75L113 260.25L112.75 261L115.5 259.5L116.5 259.25L116.25 258.5L117.25 257L119.25 254.75L121.5 253L123 253.25L126.25 252Z" fill="#202020"/>
<path d="M215 154H216L216.25 155.25L215 156H216.5L215.75 157.5L214.5 158L214.25 157.75V155.75L213.5 156L213.75 156.25L213.5 158L213 158.25L212.75 157.5L212.25 158.75L211 158.25L210.25 159.5H209.75V159L207.5 160.25L204.25 161.5H202.75L203.25 160.25L203.75 159.5H202.5V158.75L203.75 159L206 158.25L208.5 156.75L210 156.25L209.5 155.25L210.25 154.75L211.5 155L211.75 155.25L212.75 154.5L214.5 154.25L215 154Z" fill="#F5F5F5"/>
<path d="M184 171.5L184.75 172L184 173.25L182 174.25L181.75 175.5L180 175.75L176.5 178.25L173.25 180.75L170.5 182.75L168.25 184.5L166.5 185.75L165.5 186.75L163.5 188.25L161 189.5L160 191.5L158.25 191.75L156.5 192.25L156.25 191.5L159.5 189.25L164.25 185.75L168.5 182.75L172 180.25L176.25 177.25L180.75 174L182.75 172.5L184 171.5Z" fill="#F5F5F5"/>
<path d="M98.2505 222.5H101L105.25 224.25L109 226L109.75 226.5V227L105.5 227.25L104.5 227.75H102.5V227.25L101.25 227L99.5005 226L97.7505 225.5L96.2505 224.5V223.75L97.5005 223.5L101.5 225.5L104 226.5H104.75L103.25 225.75V225.25L100.75 224.75L97.7505 223.25V222.75L98.2505 222.5Z" fill="#E1E1E1"/>
<path d="M263.5 116.5L264.5 116.75L264.75 117.75L265.5 118L265.75 118.75L266.25 118.25L267.25 118.5L266.75 118.75L266.5 120.5H265.5L264.75 120V120.5L263.75 120.75L263.5 121.25L264.25 121.5V122.25L262.75 122L262.25 123H261L260.5 122.75V124.5L260 125L258.75 125.25L257 124V123.5L255 123.75L254.5 123L255.5 122.75H257L256.75 122L259.25 122.25L259.5 122H258.75L257.5 120L258.75 120.5L259 120.75L260 118.75L260.75 119L260.5 120.5H260V121H259.5V121.75L260.75 121.5L261.25 121.75L261.5 120.25L261.25 119.25L262.25 118.75H263.25L263.5 119L264.25 118.5V118L263 117.25L263.5 116.5Z" fill="#EEEEEE"/>
<path d="M68.0005 218.25L70.2505 218.5L75.5005 221L80.0005 223.5L81.5005 224.25L82.0005 225L84.5005 226L86.0005 227.25V227.5L84.0005 227.25L82.5005 226.25L80.0005 225.25L76.0005 223.25L68.5005 220L67.2505 219.25L67.5005 218.5L68.0005 218.25Z" fill="#F7F7F7"/>
<path d="M66.2505 219.75L68.2505 220.25L72.0005 222L81.5005 226.75L83.2505 227.75L84.2505 228.75L83.7505 229L82.0005 228.5L81.0005 228L79.5005 227.75L72.2505 224L69.2505 222.25L66.5005 221L65.5005 220L66.2505 219.75Z" fill="#F7F7F7"/>
<path d="M59.7505 214.5L60.7505 215L62.5005 217.5L63.5005 219.5L65.2505 221L72.5005 224.75L75.5005 226.5L78.0005 227.75L79.2505 228.75L79.0005 229.5L76.7505 228.75L72.0005 226.25L69.0005 224.75L66.5005 223.25L64.5005 222L63.0005 220L61.7505 217.5L59.7505 214.75V214.5Z" fill="#F3F3F3"/>
<path d="M69.0005 214.25L70.5005 214.5L72.7505 215.25L74.0005 216L76.7505 216.75L79.7505 218.25V218.75L83.0005 219.5L85.5005 220.75L86.0005 221.5L84.7505 221.75V222.25L82.5005 221.75L79.0005 220V219.5L77.7505 219.25L75.5005 218.25L74.0005 217L71.5005 216L69.7505 215.5L69.0005 214.75V214.25Z" fill="#F6F6F6"/>
<path d="M239.25 134.5L241.5 135.75V135.25H242.25L243 136.5L242.5 136.75V137.75H243L242.75 138.25L241.75 138.75L241.25 138.5V136.75L240.5 137L240.75 138.5L239.75 138.75L239.25 140.25H238.75V139.75H238.25L238 141L238.5 141.25L237.5 141.75L237.25 140H235.25L235 139L233.75 140.25L232.75 140.75L232 141.75L231.75 140.75L232.25 140L233.75 139.75V139.25H234.25L234.75 137.75L235.75 138L235.5 138.75L236.75 138.5V138H236.25V137.5L237.25 137.25L238.25 137.75L239.5 137.25L239.25 136.75H238V136.25H238.5V135.5H239.5L239.25 134.5Z" fill="#F5F5F5"/>
<path d="M81.7505 241.25L84.0005 242L88.5005 244L91.7505 245.25L94.7505 246.5L98.0005 247.75L97.5005 249L94.7505 248L91.2505 247L86.2505 244.75L82.0005 242.5L81.5005 241.75L81.7505 241.25Z" fill="#F6F6F6"/>
<path d="M90.2505 216.75L93.2505 218.25L95.0005 219.5L99.0005 221L99.2505 222L97.7505 222.25V222.75L96.0005 222.5L94.5005 222V222.5L92.5005 222.75L92.0005 222L91.7505 222.5H90.5005L89.7505 221.75V221.25H91.2505V220.75L90.5005 220.5V220L91.7505 220.25V220.75L92.5005 220.25L93.5005 219.25L90.2505 217.25V216.75Z" fill="#393939"/>
<path d="M57.7505 215.25H58.2505L59.5005 218.25L62.0005 222.25L63.7505 224.5L67.0005 228.25L69.5005 230.75L70.5005 231.5L70.7505 232.5H70.0005L67.5005 230.5L63.5005 226.5L61.2505 223.5L58.7505 219L57.7505 216.75V215.25Z" fill="#F7F7F7"/>
<path d="M107.25 227.25H111.25L114.25 228.75L115.75 229.75V231.25L114.75 231.5L112.5 230.5L110 229.5L107.5 229.75H106.25L105.75 229L104.75 228.75V228.25L106.5 228L108.25 228.5V228L106.75 227.75L107.25 227.25Z" fill="#E5E5E5"/>
<path d="M146.25 200.75L146.75 201L145.75 202.5L145 203.75L143.75 204.5L143.5 205H143L142.5 206.25L140.5 208.5L138.25 211.25L137.75 212H137.25V212.75H136.75L136.5 213.75L135 215.75H134.5L134 216.75L131 221.25L129.75 223.25L129.5 222.5L131 219.75L135 213.75L137.5 210.25L140.5 207.25L142.75 204.5L145.75 201.25L146.25 200.75Z" fill="#F9F9F9"/>
<path d="M93.2505 256.25L94.2505 256.5H93.7505L94.0005 257.5L96.0005 257.75L96.5005 258.5L94.7505 259L93.7505 260.5H91.7505L90.5005 260.25L91.0005 261.5L94.0005 262.25V262.75L91.7505 262.5L90.5005 262H89.0005L88.7505 263.5H87.0005L86.7505 263L88.0005 262.25L88.2505 260.75L89.7505 260L90.0005 259.25L92.0005 257.5L93.2505 256.25Z" fill="#141414"/>
<path d="M68.2505 216.25L71.2505 217L74.5005 218.25L76.5005 219.5L79.7505 220.75L83.7505 223L86.5005 224.25V225L84.5005 224.5L84.0005 224L82.0005 223.75L76.5005 220.75L75.5005 220L70.5005 218L68.5005 216.75L68.2505 216.25Z" fill="#F6F6F6"/>
<path d="M245.75 130H247.25L249.25 131L249 131.5H248.75V132.75L249.25 133.25L248.25 133.75H247.5L246.25 132.5V132.75L246 134L246.5 134.5L246.25 135.5L244.5 135.25L243.5 135V136L242.5 135.5V135L240.75 134.5L240.5 133.5L242.25 133.75L243.25 133.25L243.75 133.5L244.25 133L243.5 132.5L243.75 131.75L245.75 131.5L246.25 131.75L246.5 131L247.25 131.5V130.75L245.75 130.25V130Z" fill="#E8E8E8"/>
<path d="M62.5005 232.75H63.7505L63.2505 233.75H62.5005L62.2505 235.25L64.2505 236.5V237.25L63.2505 237.5V236.25L62.5005 237L62.2505 237.5L61.5005 238L62.0005 239.25L62.5005 239.5L62.2505 240.5L61.2505 241.75H60.2505L58.7505 240L58.5005 238.5L59.0005 237.75L60.2505 237.25L61.0005 235.5L61.7505 233.5H62.2505L62.5005 232.75Z" fill="#1C1C1C"/>
<path d="M115.25 253.75L115.5 254.25L114.75 255.5L115.75 254.75L116.5 255L117 255.5L116.75 256.5L115.25 258.25L114.5 258.75L112.5 258.5L111.5 258.75L111.25 260L110 261H109.5L109 262.25L107.5 263.25L107 263.75L106 263.5L107.25 262L109.25 260.25L110.5 259.25L111.25 258L112.75 257L114.5 254.75L115.25 253.75Z" fill="#222222"/>
<path d="M252 123.75L253.25 124.75L254.25 125L254.5 125.5H255.75V125H256.25V124.5L257.25 124.75L258 126L257.75 126.75L256.5 127V126.5L255 127L255.5 128L255.25 128.75L254.5 128.5V128L253.75 128.25L253.25 129H252L251.5 128.5V127.75H250.75L250.5 126.75L249.75 126H251.5L252.75 125.75L252.5 124.5L251.75 124.25L252 123.75Z" fill="#4C4C4C"/>
<path d="M67.2505 212.75L69.0005 213.75H71.0005L73.7505 214.75L74.2505 215L74.7505 214.5L77.0005 215L78.2505 215.5L80.5005 216.25L80.2505 216.75L76.2505 215.5H75.7505L79.2505 217.5L81.2505 218.25L83.5005 219L85.0005 219.75L84.7505 220.5L82.2505 219.5L78.5005 219V218.75H79.7505V218.25L78.2505 217.75L76.2505 216.75L74.0005 216.25L71.7505 215L70.5005 214.75L69.0005 214.25L68.7505 216.25L68.0005 216.5L67.7505 215.75L68.2505 215.5L68.5005 214.5L67.5005 214.25L67.2505 214V212.75Z" fill="#131313"/>
<path d="M57.0005 225.75L58.2505 227L59.5005 229.25L58.7505 229.5L58.5005 230.5L59.7505 230.75L59.2505 232L58.5005 232.25L58.7505 234H59.2505L59.0005 235.5L59.5005 234.75H60.2505L60.5005 235.5L59.7505 235.75L59.2505 237L58.2505 237.25L57.7505 235.75V234.5H58.2505V234L57.5005 233.75L57.2505 232.75V230.25L57.5005 230L56.7505 229.25V227.5L57.0005 226.75V225.75Z" fill="#ECECEC"/>
<path d="M74.5005 241.25L75.7505 241.75L77.7505 243.25L79.7505 244.5L83.2505 246.5L87.2505 248.5L88.0005 249.25L90.2505 250V250.75L89.0005 250.5L82.5005 247.25L80.2505 246L77.5005 244.5L74.2505 242.75L74.5005 241.25Z" fill="#F2F2F2"/>
<path d="M65.7505 211.5L69.0005 211.75L70.0005 212.75V212H71.7505L72.7505 212.75L74.0005 213L74.5005 213.75V215.25L71.0005 214H69.0005L67.5005 213L67.7505 214.25L68.5005 214.5L68.2505 215.75L67.2505 215.25L66.5005 214.5L66.2505 213H66.7505V212.25L65.7505 211.5Z" fill="#2D2D2D"/>
<path d="M218 149.75H219L219.5 150.5L218.5 150.75L218.25 152.25L217.75 153L218.25 153.25L218.5 152.75L219 153L220.5 152.75L220.25 154.25L219 154.75L217.25 155L217 156L216 157L216.25 156.25H215L214.75 155.75L216 155.25V154H215.25V153.5L214.75 153.25L216.25 152.5H216.75L217 152L216 151.5L216.25 150.75L218 149.75Z" fill="#D5D5D5"/>
<path d="M107.75 223.25L109 223.5L116.5 227.25L121 229.75L122 230.5L123 230.75L125.5 233L126.75 233.5L127.5 236.75L126.75 237L126.25 235L123.5 232.25L121 231.25L119.75 230.5L118.25 229.75L118.5 228.75L117.25 228.5L112.75 226L108.75 224L107.75 223.25Z" fill="#EFEFEF"/>
<path d="M74.7505 246.5L76.2505 247L78.5005 248.5L79.7505 249L80.5005 249.75L82.2505 250.5L83.5005 251.25L87.0005 253V253.75L85.5005 253.5L83.0005 252.75L82.2505 252L80.5005 251.25L80.0005 250.25L78.5005 250L74.7505 247.5V246.5Z" fill="#EFEFEF"/>
<path d="M73.7505 242.75L74.5005 243.25V243.75L75.5005 244.25L78.7505 246.25L79.2505 246.75L81.0005 247.5L85.0005 249.5L88.5005 251.5L89.0005 252L87.5005 251.75L84.5005 250.5L80.7505 248.5L79.2505 247.75L76.0005 246L73.2505 244.5V243.25L73.7505 242.75Z" fill="#F7F7F7"/>
<path d="M215 154H216L216.25 155.25L215 156H216.5L215.75 157.5L214.5 158L214.25 157.75V155.75L213.5 156L213.75 156.25L213.5 158L213 158.25L212.75 157.5L211.75 157.25L211 157.75L211.25 156.5L209.75 156L209.5 155.25L210.25 154.75L211.5 155L211.75 155.25L212.75 154.5L214.5 154.25L215 154Z" fill="#F4F4F4"/>
<path d="M65.0005 223.25L67.2505 224.5L69.2505 225.75L73.2505 227.75L77.0005 230L78.7505 231L79.0005 231.5L77.0005 231.25L75.2505 230L73.0005 229L67.0005 226L65.2505 224.25L65.0005 223.25Z" fill="#F7F7F7"/>
<path d="M83.0005 239.75L84.2505 240.25L88.5005 242.25L93.5005 244.25L100.75 247L107 249L109 249.5V249.75L106.75 249.5L98.2505 247L93.0005 245L85.5005 241.75L82.7505 240.5L83.0005 239.75Z" fill="#E7E7E7"/>
<path d="M266 110H268.75L269.25 110.25V111.25L270.25 112.25L270.5 113.5L269.75 114.5L268.25 115.25L267.25 115L266.75 114.75H265.5L264.75 113.75V113L266.5 112.75L267 111.5H267.5L267.75 112.75L269 113.5L269.75 113.25L267.75 112.25V111.75L268.75 111.5V110.5L266.5 110.75L265.5 110.25L266 110Z" fill="#252525"/>
<path d="M99.2505 221.5L102 222.25L106.75 224.5L110.75 226.25L114.75 228.25L116.5 229L116.25 229.5L115.75 229.25L115.5 229.75L112.5 228L111.25 227.5H105.25L105.5 227H109.75L109 226.25L101.75 223L99.5005 222.75H97.7505V222.25L97.0005 222H99.2505V221.5Z" fill="#202020"/>
<path d="M227.5 147.75H228L228.5 149L229.25 149.25L229 150L226.5 149.75V150.25L225.75 150.5V150L225.25 149.75L225 150.5L224 151H222.5V150.5L220.5 151V149.75L221.75 149.5L222 148.75L223.75 148.5H224.5H225.75L226.75 148.25V149H227.25L227.5 147.75Z" fill="#F7F7F7"/>
<path d="M200.75 159L202.25 159.25L201.5 160L200.75 160.5H200L200.25 161.5H201L201.25 160.75H202.25L201.75 162.25L200 163.25L199 163.5L198.75 162.5L198.5 163.25L197.25 164L196.25 164.75L196.75 163.25L198.25 160.5L200.75 159Z" fill="#2C2C2C"/>
<path d="M142.75 205.5L144.25 205.75L145 206.25L144.25 206.5V207.25L143.25 208H142.75L142.5 209L139.5 211.25L140.5 211.75H138.25V211L140.5 208.25L142.75 205.5Z" fill="#151515"/>
<path d="M75.0005 240.25L76.5005 240.5L83.0005 244L87.0005 246L91.2505 248L91.5005 248.5L90.5005 248.75L87.0005 247.25L81.2505 244L75.2505 240.75L75.0005 240.25Z" fill="#EFEFEF"/>
<path d="M73.2505 247H74.5005L77.0005 248.75L79.0005 250L80.0005 250.25L81.2505 251.75L80.7505 252.75L80.5005 252.25L78.5005 252.5L78.2505 251.25L76.2505 250.25L76.0005 249.5L74.7505 249L73.2505 248V247Z" fill="#161616"/>
<path d="M235 139.5L235.25 140H236.5V140.75L237 141.25L237.25 143L236.25 143.5V142L235.25 142.25L235.5 143.5H234.75L234 142.75L233.5 144L232.75 144.25L233.25 144.5L233 145.5L232.25 145.25L232 144.25H231.5V143.75L233.25 143.25V142.25L232.5 141.75L233.25 141.5L235 139.5Z" fill="#D3D3D3"/>
<path d="M126.25 252L126.5 252.75L123.75 254.75L120.75 257.5L117.75 259.5V258.75L119 257.25L121 255.5L122.5 253.5L126.25 252Z" fill="#F6F6F6"/>
<path d="M98.2505 222.5H101L104.5 224L104.75 225H103.5L102.5 225.25L99.0005 224L97.7505 223.25V222.75L98.2505 222.5Z" fill="#F6F6F6"/>
<path d="M146.25 203.25L147.25 203.75L146.75 205L147.75 204.75L146.5 206.25H146L145.75 207L144.5 207.75L143.25 209L142.25 210.25L140.75 211.5H139.25L140.5 210.25L142.5 208.75L142.75 208L144.25 207V206.25H145L145.25 203.75L146.25 204V203.25Z" fill="#2C2C2C"/>
<path d="M239.25 134.5L241.5 135.75V135.25H242.25L243 136.5L242.5 136.75V137.75H243L242.75 138.25L241.75 138.75L241.25 138.5V136.75L240.5 137L240.75 138.5L239.5 138.75V138L238.75 137.5L239.5 137.25L239.25 136.75H238V136.25H238.5V135.5H239.5L239.25 134.5Z" fill="#EAEAEA"/>
<path d="M93.7505 226.25H96.2505V226.75H99.7505L101.75 227.75L102 228.5L98.5005 228.75L97.2505 228.5L95.2505 227.25L94.0005 226.75L93.7505 226.25Z" fill="#D8D8D8"/>
<path d="M104.75 224.25L106.25 224.75L109.75 226.5V227L105.5 227.25L104.5 227.5L104.75 226.5L103.25 225.75L103.5 224.75L104.75 225V224.25Z" fill="#DFDFDF"/>
<path d="M57.0005 222.5H57.5005L59.7505 226L60.7505 227.5V228.5L62.2505 228.75L62.5005 229.75L60.7505 229.5L59.7505 229L59.0005 227.25L57.5005 225L57.0005 224.75L56.7505 222.75L57.0005 222.5Z" fill="#E6E6E6"/>
<path d="M205 155.75L205.25 156.75L206.75 156.5L206.5 157.5L207 158L204.75 158.75H204L203.75 159.25L202.5 158.75V159.5H203.75L203.5 160L202 159.75L201.25 159.5L201.5 158.25L202 157H202.5L203 157.75L203.25 156.75L204.25 156.25L204.5 156.5L205 155.75Z" fill="#1B1B1B"/>
<path d="M65.0005 211L66.2505 211.25V211.75L67.0005 212.25L66.7505 213.25L64.5005 212.25L62.5005 212.5L62.2505 213L64.5005 213.75L65.5005 214L66.2505 214.5L66.0005 215.25L62.7505 214.25L61.5005 214L60.7505 213.25L61.7505 212L62.5005 211.5L64.5005 211.75V211.25L65.0005 211Z" fill="#E2E2E2"/>
<path d="M112.5 258.25L114.25 258.75L113 260L111.75 260.25L111.25 262.25L108.25 263.5L107.25 263.25L108 262.5L109 262L109.5 261L111 259.75L111.5 258.75L112.5 258.25Z" fill="#F1F1F1"/>
<path d="M76.7505 253.5L77.2505 254H78.5005L79.7505 255L81.7505 256L83.2505 256.5V257H83.7505L84.0005 258L83.0005 258.25L81.5005 257.25L79.5005 256.25L77.2505 255.25L77.0005 254.75L76.2505 254.25H76.7505V253.5Z" fill="#EAEAEA"/>
<path d="M256.75 122L259.25 122.25V122.75H260.25L260.5 124.5L260 125L258.75 125.25L257 124V123.5L255 123.75L254.5 123L255.5 122.75H257L256.75 122Z" fill="#F3F3F3"/>
<path d="M59.7505 214.5L60.7505 215L62.5005 217.5L63.5005 219.5L65.2505 221L68.5005 222.75L68.2505 223.5L66.5005 223.25L64.5005 222L63.0005 220L61.7505 217.5L59.7505 214.75V214.5Z" fill="#F2F2F2"/>
<path d="M62.5005 232.75H63.7505L63.2505 233.75H62.5005L62.2505 235.25L60.5005 238.5L59.7505 238.75L59.5005 239.75L60.7505 239.25L60.2505 240.75H59.5005L58.7505 240L58.5005 238.5L59.0005 237.75L60.2505 237.25L61.0005 235.5L61.7505 233.5H62.2505L62.5005 232.75Z" fill="#EAEAEA"/>
<path d="M68.7505 214.75L69.7505 215.25L72.7505 216.25L74.7505 217.25L75.0005 218L75.7505 218.25L76.0005 219.25L72.7505 217.75L68.7505 216.5L68.5005 215.75L68.7505 214.75Z" fill="#111111"/>
<path d="M136.75 214.5H137.5L137.25 215.5L135.75 217H135.25L135 217.75L134 218V218.75L132 220.25L131.25 221.5L130.75 221.75L131.25 220.25L133 218L134.5 215.75L135.75 214.75V215.25L136.75 214.5Z" fill="#3B3B3B"/>
<path d="M226 145.5H227L227.5 146.5L227.75 147.5L226.5 147.75V148.25L225.5 148.75L224.5 148.5L224.25 149L223.25 148.25L224.25 147.75V146.5L225.5 145.75L226 145.5Z" fill="#F1F1F1"/>
<path d="M70.2505 251.25L71.2505 251.5L73.7505 253L75.5005 254L77.2505 254.75V255.25L78.2505 255.75H77.7505L77.5005 256.25L75.7505 255.75L74.5005 254.75L72.7505 253.75L70.5005 252L70.2505 251.25Z" fill="#171717"/>
<path d="M242.75 133.25L244.25 133.75L245 134.25L245.25 133.25L246 133.5L246.5 134.5L246.25 135.5L244.5 135.25L243.5 135V136L242.5 135.5V135L240.75 134.5L240.5 133.5L242.25 133.75L242.75 133.25Z" fill="#E9E9E9"/>
<path d="M113 228.25L114.25 228.75L115.75 229.75V231.25L114.75 231.5L112.5 230.5L111 230L111.5 229H112.25V229.75L112.5 228.75H113V228.25Z" fill="#D9D9D9"/>
<path d="M94.2505 220L95.7505 220.25L99.2505 221.5V222L97.7505 222.25V222.75L96.0005 222.5L95.5005 222L94.5005 221.75V221.25L93.2505 220.75L94.2505 220Z" fill="#ECECEC"/>
<path d="M82.2505 246L87.0005 248.25L88.0005 249.25L90.2505 250V250.75L89.0005 250.5L82.5005 247.25L81.5005 246.5H82.2505V246Z" fill="#F4F4F4"/>
<path d="M136.5 212.75L136.75 213.5L135.75 214.75L135 215.75H134.5L134 216.75L131 221.25L129.75 223.25L129.5 222.5L131 219.75L134.5 214.5L136 213.25H136.5V212.75Z" fill="#F5F5F5"/>
<path d="M97.0005 254.25L98.7505 254.5V255.25L97.5005 256L97.2505 256.5L99.2505 256.75L99.7505 257.5L96.5005 257L96.0005 257.25L95.5005 256.5L94.5005 256H95.0005L95.5005 254.75L97.0005 254.25Z" fill="#242424"/>
<path d="M70.0005 212H71.7505L72.7505 212.75L74.0005 213L74.5005 213.75V215.25L70.5005 213.75L70.0005 212Z" fill="#EEEEEE"/>
<path d="M249.25 128H250.25V128.5H249.75V129.25L250.25 129.5L250.5 128.75H251.5L252 129.5L252.5 129.25L252.75 130.25L251.5 130.75L249.5 131L248.25 129.75V129L249.25 128Z" fill="#EAEAEA"/>
<path d="M263.5 116.5L264.5 116.75L264.75 117.75L265.5 118L265.75 118.75L266.25 118.25L267.25 118.5L266.75 118.75L266.5 120.5H265.5L264.75 120V120.5L264.25 120.25V119.5H263.5L263.75 118.75L264.25 118.5V118L263 117.25L263.5 116.5Z" fill="#E7E7E7"/>
<path d="M81.2505 253.25L83.0005 253.5L83.5005 254.5H85.5005L85.7505 255.5L85.0005 256.25L83.5005 255.75L83.0005 255.25L81.2505 254.75L80.7505 253.75L81.2505 253.25Z" fill="#EBEBEB"/>
<path d="M236.75 135.5L238.25 135.75L238 136.75L239.5 136.5L239.75 137.5L238 138L236.75 137.5H236.25V138H236.75V138.5L235.5 138.75V138H234.5V137.5H235.5V136L236.75 135.5Z" fill="#070707"/>
<path d="M78.7505 257L80.0005 257.5V258.25L81.0005 258L82.2505 259V260.25L81.0005 260L79.7505 259.25L78.0005 258.5L77.7505 257.75L78.7505 257Z" fill="#F2F2F2"/>
<path d="M115.75 252.75H117L117.25 253L119 253.25L118.5 254.25L118 254.5L117.25 255.75L116.25 255.25H115.5L114.5 255.75L115.75 252.75Z" fill="#E8E8E8"/>
<path d="M103.25 233.5H106.5L108.75 234.5L109 235.25H106.25L104 234.5L103.25 234V233.5Z" fill="#DFDFDF"/>
<path d="M265.25 110L266 110.25L267 110.5H268.75V111.5L267.75 111.75L268.5 112.5L269.75 113V113.75L268.75 113.5L267.5 112.75V111.5L267 111.75H265.5L264.25 111.25L264.5 110.5L265.25 110Z" fill="#E8E8E8"/>
<path d="M107.75 223.25L109 223.5L116.5 227.25L121 229.75L121.75 230.75L120.75 230.5L118.5 229L114.5 227L107.75 223.5V223.25Z" fill="#363636"/>
<path d="M210.5 156L211.5 156.5L211 156.75L211.25 157.5L212 157L212.75 158L212.25 158.75L211 158.25L210.25 159.5H209.75V159L208.5 159.5V159L209.25 158.25L209 157.75L209.25 156.5L210.5 156Z" fill="#F3F3F3"/>
<path d="M69.0005 214.25L70.5005 214.5L72.7505 215.25L74.0005 216L76.2505 216.5L75.2505 217L74.7505 217.5L72.2505 216.25L69.7505 215.5L69.0005 214.75V214.25Z" fill="#E5E5E5"/>
<path d="M267 111.5H267.5L267.75 112.75L268.25 113.25L267.75 113.75L267.5 114.75L268.25 115L267.5 115.25L266.75 114.75H265.5L264.75 113.75V113L266.5 112.75L267 111.5Z" fill="#434343"/>
<path d="M81.5005 250.25L82.5005 250.75L86.2505 252.5L87.0005 253V253.75L85.5005 253.5L83.0005 252.75L82.2505 252L81.2505 251.5L82.0005 251L81.5005 250.25Z" fill="#E6E6E6"/>
<path d="M58.0005 232L58.7505 232.75V234H59.2505L59.0005 235.5L59.5005 234.75H60.2505L60.5005 235.5L59.7505 235.75L59.2505 237L58.2505 237.25L57.7505 235.75V234.5H58.2505V234L57.5005 233.75V232.5L58.0005 232Z" fill="#E1E1E1"/>
<path d="M200.75 159L202.25 159.25L201.5 160L200.75 160.5H200L200.25 161.5H201L201.25 160.75H202.25L201.75 162.25L200 163.25L199 163.5L199.5 161L199.75 160L200.5 159.75L200.25 159.25L200.75 159Z" fill="#959595"/>
<path d="M254.25 122.75L255.25 123L254.75 123.25L255.5 123.5H257L258 124.5L259 125L260 125.25L258.75 126.25L258.25 126L258 126.5L257 124.75L256.25 124.5V125H255.75V125.5L255.25 125.25L255.5 124.75H254.75L254.25 123.5V122.75Z" fill="#252525"/>
<path d="M71.7505 255L73.0005 255.5L76.5005 257.5L78.0005 258L78.7505 259L78.2505 259.5L75.7505 258.25L73.2505 256.75L71.7505 255.5V255Z" fill="#1C1C1C"/>
<path d="M100 231.5H102L104.25 232.25L104.5 232.75L103.25 233L103 233.5H101.75L99.7505 232.5L99.0005 231.75L100 231.5Z" fill="#E2E2E2"/>
<path d="M75.0005 216.75H76.7505L79.7505 218.25V218.75H76.2505L75.0005 218V216.75Z" fill="#F7F7F7"/>
<path d="M90.2505 216.75L93.2505 218.25L95.0005 219.5L99.0005 221L99.2505 221.5L96.2505 220.75L95.2505 220.25L93.7505 220.5L93.0005 220.75L92.5005 220L93.5005 219.25L90.2505 217.25V216.75Z" fill="#CFCFCF"/>
<path d="M184 171.5L184.75 172L184 173.25L182 174.25L181.75 175.5L180 175.75L179.5 176L179.75 174.75L182.75 172.5L184 171.5Z" fill="#EFEFEF"/>
<path d="M253.25 126.25L255 127L255.5 128L255.25 128.75L254.5 128.5V128L253.75 128.25L253.25 129H252L251.5 128.5V127.75H252.5V127L253.25 126.25Z" fill="#E8E8E8"/>
<path d="M121.5 253L122.5 253.25L121.25 254.25L119.25 256H118.75L118.25 257.25L117.25 258.75L116.25 258.5L117.25 257L119.25 254.75L121.5 253Z" fill="#F1F1F1"/>
<path d="M75.5005 215.25L77.0005 215.5L80.2505 216.5L81.5005 217.5L81.2505 218.25L79.5005 218L76.2505 216L75.5005 215.25Z" fill="#F7F7F7"/>
<path d="M260 118.75L260.75 119L260.5 120.5H260V121H259.5V121.75L260.75 121.5L261.75 122.75L261 123L260.5 122.75H259.25L259.5 122H258.75L257.5 120L258.75 120.5L259 120.75L260 118.75Z" fill="#C5C5C5"/>
<path d="M80.2505 226.25L82.5005 227.25L84.0005 228.25L84.2505 229L82.0005 228.5L81.0005 228L79.5005 227.75L78.5005 227L80.2505 226.75V226.25Z" fill="#E4E4E4"/>
<path d="M256.25 124.5L257.25 124.75L258 126L257.75 126.75L256.5 127V126.5L254.75 126.75L253.75 125.75V125H254.25L254.5 125.5H255.75V125H256.25V124.5Z" fill="#E9E9E9"/>
<path d="M64.5005 240.5H65.0005L64.2505 243.25L63.2505 244.75L62.5005 245L62.7505 243.75L63.5005 243.25L63.7505 242.5L62.5005 242.75L62.2505 243.75L61.5005 244L61.2505 243L60.7505 242.75L62.0005 242L62.5005 241.5V242L64.0005 241.25L64.5005 240.5Z" fill="#383838"/>
<path d="M210.25 154.75L211.5 155L211.75 155.75L212.5 156L212 156.5L212.5 156.75L212.75 156L213.75 156.25L213.5 158L213 158.25L212.75 157.5L211.75 157.25L211 157.75L211.25 156.5L209.75 156L209.5 155.25L210.25 154.75Z" fill="#D7D7D7"/>
<path d="M77.5005 216.75L78.7505 217.25L80.2505 218L83.2505 218.75L84.2505 219.5L85.0005 219.75L84.7505 220.5L82.2505 219.5L78.5005 219V218.75H79.7505V218.25L78.2505 217.75L77.2505 217L77.5005 216.75Z" fill="#212121"/>
<path d="M191 167L191.5 167.25L190.75 169.25L188 171L187.5 170.25L187.75 169.5L189.25 168.5L190.25 167.5L191 167Z" fill="#6C6C6C"/>
<path d="M72.2505 249.25L72.5005 249.75H73.0005V250.25L74.2505 250.75L76.2505 251L76.7505 252.5L75.0005 252.75L73.7505 251.5L72.0005 250L72.2505 249.25Z" fill="#0A0A0A"/>
<path d="M81.7505 248.25L83.5005 248.75L89.0005 251.75L88.2505 252L85.0005 250.75L82.5005 249.5L81.7505 248.25Z" fill="#E1E1E1"/>
<path d="M91.7505 235.25H93.7505L96.0005 235.75L96.2505 236.5L95.5005 237L93.2505 236.75L91.7505 236V235.25Z" fill="#E6E6E6"/>
<path d="M84.0005 216.75L85.5005 217.25L87.7505 218.25L90.0005 219.5L89.2505 219.75L87.0005 218.75L84.7505 218.5L82.2505 218.25V218L84.5005 217.5L84.0005 216.75Z" fill="#252525"/>
<path d="M99.5005 234.25H101.25L104.25 235.25V236H102L99.7505 235L99.5005 234.25Z" fill="#E5E5E5"/>
<path d="M219 143.5H219.5V144.25H220.25L220.5 145.5L219.25 146.25L217.75 146.5V146L217 146.75L216.5 146.25H217.25L217.5 145.25L217.75 144.5L218.75 144.25L219.25 144.5L219 143.5Z" fill="#2B2B2B"/>
<path d="M74.0005 241.25H74.5005L74.2505 242.75L75.2505 243.25L75.0005 243.75H74.5005L73.7505 243L73.5005 243.25V244.5L74.2505 245L73.5005 245.25L72.5005 245L71.7505 246.25L71.0005 246.5L71.5005 245.25L73.2505 242.25L73.5005 241.5L74.0005 241.25Z" fill="#202020"/>
<path d="M83.0005 239.75L84.2505 240.25L88.5005 242.25L91.0005 243.25L90.0005 243.75L82.7505 240.5L83.0005 239.75Z" fill="#E9E9E9"/>
<path d="M109.25 230L111.75 230.5L113.5 231.25L113.25 232L110.75 231.75L108 230.5V230.25L109.25 230Z" fill="#E4E4E4"/>
<path d="M97.7505 223.25L101.5 224.75L103.75 225V225.75L105 226.5L104 226.75L100.75 225.5L97.5005 223.75L97.7505 223.25Z" fill="#232323"/>
<path d="M233.5 141.5H234.75L235.5 142.75L235.25 143.75L234 142.75L233.5 144L232.75 144.25L233.25 144.5L233 145.5L232.25 145.25L232 144.25H231.5V143.75L233.25 143.25V142.25L233.5 141.5Z" fill="#E0E0E0"/>
<path d="M91.0005 232.5H92.7505L95.0005 233.5L95.5005 234.5H94.0005L91.7505 233.5L91.0005 233V232.5Z" fill="#E4E4E4"/>
<path d="M93.7505 227.75L95.0005 228.25L95.5005 229L98.7505 230.5V231.5L97.2505 231L94.5005 229.25L93.5005 229L93.7505 227.75Z" fill="#E5E5E5"/>
<path d="M57.0005 222.5H57.5005L59.7505 226L59.5005 226.5L58.7505 226L58.5005 226.5L57.5005 225L57.0005 224.75L56.7505 222.75L57.0005 222.5Z" fill="#F8F8F8"/>
<path d="M144.25 207H144.75L144.25 208.25L142.5 209.75L140.75 211.5H139.25L140.5 210.25L142.5 208.75L142.75 208L144.25 207Z" fill="#DFDFDF"/>
<path d="M122 233L123.25 233.25L124.75 234.25L125.75 235.5L125 236L123.25 234.5V234H122.75V234.5L121.5 234.25L121.25 233.75H121.75L122 233Z" fill="#E5E5E5"/>
<path d="M114.75 256H117L116 257.5L115.25 258V257.5L114.5 258H113L113.75 256.75L114.75 256Z" fill="#F0F0F0"/>
<path d="M115.5 259.5L116.25 259.75L115.5 260.5L111.5 262.25L111.25 261.5L111.75 260H113L112.75 261L115.5 259.5Z" fill="#4D4D4D"/>
<path d="M59.7505 242L61.2505 243L61.7505 243.75H62.2505L62.5005 242.5L63.2505 242.25L63.7505 242.5L63.5005 243.5L62.7505 244L62.5005 245.5L62.0005 245V244.25L61.2505 245L59.7505 242.75V242Z" fill="#F0F0F0"/>
<path d="M74.5005 241.25L75.7505 241.75L77.7505 243.25L78.2505 243.75H77.5005L77.2505 244.25L74.2505 242.75L74.5005 241.25Z" fill="#F3F3F3"/>
<path d="M218 149.75H219L219.5 150.5L218.5 150.75L218.25 152.25L217 152.5V152L216 151.5L216.25 150.75L218 149.75Z" fill="#2D2D2D"/>
<path d="M223.75 140.25H224.25V140.75L224.75 141L223.5 141.75L223.25 142.25H222.5L222.25 143.5L221 144L220.5 143L222 142L221.5 141H222.25L223.25 141.5V140.5L223.75 140.25Z" fill="#525252"/>
<path d="M62.0005 232.75L62.2505 233.5H61.7505L61.5005 235.25L60.5005 235.5L60.2505 234.75H59.5005L59.0005 235.75L58.7505 234.75L59.5005 233.75L61.0005 233.25L62.0005 232.75Z" fill="#111111"/>
<path d="M81.5005 224.5L83.0005 225.5L84.7505 226.25L86.0005 227.5L84.0005 227.25L82.5005 226.25L81.2505 225.75L81.0005 225L81.5005 224.5Z" fill="#DFDFDF"/>
<path d="M103.75 230.75H106L108.75 232L109.5 232.75L107.25 232.5L105.25 231.5L104.75 232L103.75 231.25V230.75Z" fill="#DFDFDF"/>
<path d="M66.7505 229L68.0005 229.25L70.5005 231.5L70.7505 232.5H70.0005L67.5005 230.5L66.7505 229Z" fill="#F4F4F4"/>
<path d="M61.0005 213L63.2505 213.25L64.5005 213.75L65.5005 214L66.2505 214.5L66.0005 215.25L62.7505 214.25L61.5005 214L60.7505 213.25L61.0005 213Z" fill="#E7E7E7"/>
<path d="M93.0005 257.75L94.5005 258L94.0005 259.5L93.2505 260H91.5005L92.0005 258.75L93.0005 257.75Z" fill="#F2F2F2"/>
<path d="M75.7505 218.5L78.2505 219.25L79.0005 219.5V220L81.5005 221L81.0005 221.75L77.5005 220L76.2505 219.5L75.7505 218.5Z" fill="#1F1F1F"/>
<path d="M66.7505 217L67.5005 217.25L66.0005 219L65.5005 220L64.2505 219.25L63.2505 218.5V217.75L64.5005 218L65.5005 218.5L66.2505 217.25L66.7505 217Z" fill="#E5E5E5"/>
<path d="M136.75 214.5H137.5L137.25 215.5L135.75 217H135.25L135 217.75L134 218L133.75 218.5L133.5 217.75H134.25L134.75 216.5H135.25L135.5 214.75L135.75 215.25L136.75 214.5Z" fill="#808080"/>
<path d="M67.0005 219L70.7505 220.75L73.0005 221.75V222.5L71.7505 222L67.7505 220.25L66.2505 219.75L67.0005 219Z" fill="#222222"/>
<path d="M228.75 145.5L229.75 145.75V146.5L230.75 147.25V148.25L229.5 148.5L228.75 147.5L228 147H228.5L228.25 146L228.75 145.5Z" fill="#616161"/>
<path d="M93.7505 257L94.0005 257.5L96.0005 257.75L96.5005 258.5L94.7505 259L93.7505 260.5H91.7505L91.0005 259.75H93.2505L94.0005 259.25L94.5005 258L93.2505 257.75L93.7505 257.5V257Z" fill="#2D2D2D"/>
<path d="M57.0005 225.75L58.2505 227L59.2505 228.75L58.0005 229.5H57.5005L57.2505 228.25L56.7505 229V227.5L57.0005 226.75V225.75Z" fill="#373737"/>
<path d="M222.25 154.25H223V155.25H221.75L220.5 156.25L220 155.75L219.25 156.5H217.75V156L219.25 155.25L219.75 154.75H220.5V155.25L222.25 154.25Z" fill="#787878"/>
<path d="M146.25 200.75L146.75 201L145.75 202.5L145 203.75L143.75 204.5L143.5 205H143L142.75 205.5L142.5 204.75L146 201L146.25 200.75Z" fill="#F3F3F3"/>
<path d="M210.75 150.25L212.5 150.5L211.75 150.75L211.5 151.75H210.5L210.25 152.5H209.5L209 153.25L208.5 153L209 152.25L208.75 151.75L209 151.5V151L210.75 150.25Z" fill="#636363"/>
<path d="M89.0005 254L90.2505 254.25L90.7505 254.5V255L93.2505 255.5V256.25L92.2505 256.5L91.2505 255.75L89.0005 255.25L88.7505 254.5L89.0005 254Z" fill="#F0F0F0"/>
<path d="M76.0005 250L78.2505 251L78.7505 252.25L78.5005 252.5L76.7505 252.25L76.2505 251L75.2505 250.75L76.0005 250.5V250Z" fill="#E5E5E5"/>
<path d="M59.7505 237.5H60.2505L60.5005 238.5L59.7505 238.75L59.5005 239.75L60.7505 239.25L60.2505 240.75H59.5005L58.7505 240L58.5005 238.5L59.0005 237.75L59.7505 237.5Z" fill="#F0F0F0"/>
<path d="M227.75 135.75L228.75 136.25L229 136.75L227.75 137.25L227.25 138.75L228 139H226.75L225.75 139.75L225.5 139L226.25 137.75H226.75V137.25H227.25L227.5 136L227.75 135.75Z" fill="#7B7B7B"/>
<path d="M104.25 220.75L107 221.5L107.25 222H106.75L107.75 223.25L106.75 223L104.25 221.75L103 221.5L103.5 221L104.25 220.75Z" fill="#D9D9D9"/>
<path d="M227 142.5L227.25 143H226.75L227.25 143.5L228.25 143.75L228 144.5L227 145L225 145.5L225.25 145H225.75L225.5 143.5L227 142.5Z" fill="#A2A2A2"/>
<path d="M109 229.25L110.5 229.5L113 230.5L113.25 231L111 230.5L109.25 230.25L107.5 230.5V229.5L109 229.25Z" fill="#282828"/>
<path d="M68.7505 227.75L70.0005 228.25L73.2505 230.25L75.2505 231.25L76.0005 232.25L74.5005 231.75L70.0005 229L68.7505 227.75Z" fill="#EFEFEF"/>
<path d="M142.75 205.5L144.25 205.75L145 206.25L144.25 206.5V207.25L143.25 207.5L143 207L142 207.5V208H141.5L142 206.5L142.75 205.5Z" fill="#0A0A0A"/>
<path d="M110.75 226.75L112.25 227L116.5 229L116.25 229.5L115.75 229.25L115.5 229.75L112.5 228L111 227.25L110.75 226.75Z" fill="#1D1D1D"/>
<path d="M65.5005 221.5L66.7505 221.75L68.5005 222.75L68.2505 223.5L66.5005 223.25L65.0005 222.5L65.2505 221.75L65.5005 221.5Z" fill="#F8F8F8"/>
<path d="M227.5 147.75H228L228.5 149L229.25 149.25L229 150L226.5 149.75V150.25L225.75 150.5L226.25 149.25L227.25 149L227.5 147.75Z" fill="#B5B5B5"/>
<path d="M158.75 189.75L159.75 190.25L159.5 191.75H157.75L156.5 192.25L156.25 191.5L158.75 189.75Z" fill="#EBEBEB"/>
<path d="M214.5 155.25L215.75 155.5L215 156H216.5L215.75 157.5L214.5 158L214.25 157.75L214 155.5L214.5 155.25Z" fill="#E5E5E5"/>
<path d="M220.25 154H220.75V154.75L221.25 155L220.5 155.25V154.75L219.25 155.5L217.75 156L217.5 156.5V156L217 155.75L217.25 155L218.25 154.5L219.5 154.25L220.25 154Z" fill="#222222"/>
<path d="M96.5005 232L98.2505 232.5L99.2505 233.5L99.0005 233.75L96.7505 233.5L95.5005 232.75L95.7505 232.25L96.5005 232Z" fill="#EAEAEA"/>
<path d="M88.7505 218.5L89.7505 218.75L91.0005 219.5L91.5005 219.25L92.7505 219.75L92.5005 220.75H91.7505L91.5005 220.25L89.7505 220.5L90.0005 219.5L88.5005 219L88.7505 218.5Z" fill="#DCDCDC"/>
<path d="M57.7505 215.25H58.2505L59.5005 218.25L60.2505 219.75L59.7505 220L58.7505 219L57.7505 216.75V215.25Z" fill="#F1F1F1"/>
<path d="M128 238.75L128.75 239.5L129 240V241.5H129.5L130.5 244.5H130L128.5 242.5L128.25 240.25L128 238.75Z" fill="#525252"/>
<path d="M84.0005 220.25L85.0005 220.5L86.0005 221.5L84.7505 221.75V222.25L82.5005 221.75L83.2505 221.5V220.75L84.0005 220.25Z" fill="#E4E4E4"/>
<path d="M146.75 202.5L148 202.75L148.5 203.25L148.25 204.5L146.75 205L146.5 205.5L146.75 204.5L147.25 203.75L146.5 204L146.75 202.5Z" fill="#EAEAEA"/>
<path d="M234.75 137.75L235.75 138L235.5 139.5L235 139L233.75 140.25L232.75 140.75L232 141.75L231.75 140.75L232.25 140L233.75 139.75V139.25H234.25L234.75 137.75Z" fill="#EAEAEA"/>
<path d="M63.0005 238L64.0005 239L63.0005 240.5L61.7505 241.25L62.2505 240.25L62.5005 239.5L61.5005 239L63.0005 238Z" fill="#1B1B1B"/>
<path d="M62.7505 236.25H63.2505V237.5L64.2505 237.25L63.7505 238.5L63.0005 238.25L61.7505 238.75L61.2505 237.75L62.2505 237.5L62.7505 236.25Z" fill="#E5E5E5"/>
<path d="M81.5005 216L82.7505 216.25L84.7505 217.25L84.5005 217.75H82.2505L81.2505 216.5L81.5005 216Z" fill="#F6F6F6"/>
<path d="M239.25 134.5L241.25 135.75L241.5 136.5L240.25 136.25V135.75H239.75V136.5L238 136.75V136.25H238.5V135.5H239.5L239.25 134.5Z" fill="#F1F1F1"/>
<path d="M243.75 131.75H245.25V132.5L246.25 132.75L246 133.75L245.25 133.5L245 134.25L243.75 133.75L244.25 133L243.5 132.5L243.75 131.75Z" fill="#E6E6E6"/>
<path d="M243 124.75L244.25 125L244.5 126.5L243.25 126.75L243 127.5L242.5 127V125.5L243 124.75Z" fill="#ADADAD"/>
<path d="M87.2505 246.25L89.7505 247.25L91.5005 248.25L90.5005 248.75L87.5005 247.5V247L87.0005 246.5L87.2505 246.25Z" fill="#E8E8E8"/>
<path d="M240.25 136.75H241.25V138.5L242.25 139H241.5L241 138.75L241.25 140.25H240.5L240.25 139H239.75L239.5 139.75L239.75 138.25L240 138.75L240.5 138.5L240.25 136.75Z" fill="#5A5A5A"/>
<path d="M260.75 119L261.75 119.25V120.25L261.25 121.75H259.5V121H260V120.5H260.5L260.75 119Z" fill="#171717"/>
<path d="M97.0005 237.25L98.5005 237.5L99.7505 238.25V238.75H97.7505L96.2505 238V237.5L97.0005 237.25Z" fill="#E1E1E1"/>
<path d="M59.7505 235.5H61.0005L60.2505 237.5L58.2505 238.25V237.25L59.2505 237L59.5005 235.75L59.7505 235.5Z" fill="#1F1F1F"/>
<path d="M58.2505 232L59.5005 232.25L61.2505 233L60.7505 233.75L58.7505 234.25L58.5005 233.75L58.2505 232Z" fill="#7D7D7D"/>
<path d="M205 155.75L205.25 156.75L206.75 156.5L206.5 157.25L205.5 157.75L203.75 157.5L203.25 157.25L203 157.75L203.25 156.75L204.25 156.25L204.5 156.5L205 155.75Z" fill="#777777"/>
<path d="M109.5 256V256.75L106.75 260L105.5 261.5L105.25 260.5L107.5 258.25L109.25 256.25L109.5 256Z" fill="#222222"/>
<path d="M96.0005 234.75L98.2505 235L99.5005 235.75V236.25L100.25 236.5L99.5005 236.75L96.2505 235.5L96.0005 234.75Z" fill="#E7E7E7"/>
<path d="M115.75 229.75H116.5L116.25 231H117.25V232.25L119 232.5L119.5 233.5L118.25 233L116.25 232L115.5 230.25L115.75 229.75Z" fill="#686868"/>
<path d="M226 145.5H227L227.5 146.5V147.25L226.75 146.75L225.5 147L225 147.5H224.25L224.5 146.25L226 145.5Z" fill="#8D8D8D"/>
<path d="M229 136L230 136.25L229.5 137.25L228.75 138L228.25 138.75H227.25L227.5 137.25L228.75 136.25L229 136Z" fill="#F4F4F4"/>
<path d="M250.5 126.75L250.75 127.75H251.5L252 128.75L252.5 129.25L251.75 129.75L251.5 128.75L250.5 129L250.25 129.5L249.5 129.25L249.75 128.5H250.25L249.5 127.5L250.5 127.25V126.75Z" fill="#353535"/>
<path d="M79.5005 252L80.7505 252.25L81.0005 253.25L80.7505 253.75H79.2505L78.5005 253V252.5L79.5005 252Z" fill="#E4E4E4"/>
<path d="M78.5005 246.25L81.0005 247.5L82.2505 248.75L82.5005 249.25L81.2505 248.75L79.2505 247.75L78.5005 247.25V246.25Z" fill="#EEEEEE"/>
<path d="M235 138.75L235.25 139.5L234.5 140.5L233.25 141.75L232 142.25L231.75 141.5L231.25 141.25L231.75 140.75L232 141.25L232.75 140.5L233.75 140L235 138.75Z" fill="#323232"/>
<path d="M264.75 111.25L266.75 111.75V113H264.75L264.5 113.5V113L263.75 112.75L264.75 112.5L264.5 111.5L264.75 111.25Z" fill="#1D1D1D"/>
<path d="M115.75 252.75H117V253.75L115 255.75L114.5 255.5L115.25 254.25L115.75 252.75Z" fill="#EDEDED"/>
<path d="M74.5005 214.5L77.0005 215L78.2505 215.5L80.5005 216.25L80.2505 216.75L76.2505 215.5H74.5005V214.5Z" fill="#414141"/>
<path d="M262.25 118.75H263.25L263 120.25L262.75 121.5L261.5 121L261.25 119.25L262.25 118.75Z" fill="#E3E3E3"/>
<path d="M74.7505 229.25L76.0005 229.5L78.5005 230.75L79.0005 231.5L77.0005 231.25L75.2505 230L74.5005 229.5L74.7505 229.25Z" fill="#EBEBEB"/>
<path d="M105.5 225L107.25 225.25L109.75 226.5V227L107.25 226.75L107 225.75L105.5 225.5V225Z" fill="#F4F4F4"/>
<path d="M202 157H202.5L203 158L203.5 158.5L202.5 158.75V159.5H203.75L203.5 160L202 159.75L201.25 159.5L201.5 158.25L202 157Z" fill="#595959"/>
<path d="M203 155L204 155.25L204.25 156L203.25 157L203 158.25L202.5 157.75L202.25 156L203 155Z" fill="#E3E3E3"/>
<path d="M240.5 133.5L241.5 133.75L243.25 134.25L243.5 136L242.5 135.5V135L240.75 134.5L240.5 133.5Z" fill="#E7E7E7"/>
<path d="M79.5005 249L80.5005 249.75L81.5005 250L82.2505 251.25L80.7505 251.5L80.0005 250.75V250.25L79.0005 250L79.5005 249.5V249Z" fill="#EBEBEB"/>
<path d="M57.7505 230.5H59.5005L59.7505 231.25L59.2505 232L57.7505 232.5L57.2505 232.75L57.5005 231.5L57.7505 230.5Z" fill="#DADADA"/>
<path d="M69.0005 214.25L70.5005 214.5L71.7505 214.75L72.5005 215.75L72.2505 216.25L69.7505 215.5L69.0005 214.75V214.25Z" fill="#F3F3F3"/>
<path d="M71.0005 212.25L72.5005 212.5L74.2505 213.25L74.5005 214.5L72.2505 213.5L71.0005 212.25Z" fill="#1E1E1E"/>
<path d="M241.25 134.75L242.5 135L243.5 136L243.75 135V135.75L245 135.5V136.25H244.25L244 137H243.25L242.25 135.75V135.25H241.5V135.75L241 135.5L241.25 134.75Z" fill="#727272"/>
<path d="M84.0005 245L85.7505 245.25L87.2505 246.25L87.7505 247.25L86.7505 247L84.0005 245.5V245Z" fill="#F3F3F3"/>
<path d="M105 238.75H106.75L108 240V240.5L106.75 240.25L105.25 239.5L105 238.75Z" fill="#E4E4E4"/>
<path d="M91.7505 230.5L94.2505 230.75L95.7505 231.25V231.75H93.7505L92.0005 231L91.7505 230.5Z" fill="#E5E5E5"/>
<path d="M67.2505 212.75L69.0005 213.75H69.7505V214.25H69.0005L68.7505 216.25L68.0005 216.5L67.7505 215.75L68.2505 215.5L68.5005 214.5L67.5005 214.25L67.2505 214V212.75Z" fill="#232323"/>
<path d="M94.2505 256.25H95.5005L96.2505 257.25L96.0005 258L94.0005 257.5L93.7505 256.5L94.2505 256.25Z" fill="#EEEEEE"/>
<path d="M223 150.75H224.25V151.5L222.75 151.75L222.25 153.5L221.25 153.75V152.5L221.75 152L223 150.75Z" fill="#292929"/>
<path d="M96.7505 253H98.0005L99.7505 253.5L99.0005 253.75L98.7505 254.75L96.7505 254V253Z" fill="#EDEDED"/>
<path d="M108.75 233.5H110.5L112.25 234L113.25 234.5L112.5 235L109.25 234.25L108.75 233.5Z" fill="#C8C8C8"/>
<path d="M110.25 226.25L111 226.5V227.25L110.5 227.5H105.25L105.5 227H109.75V226.5L110.25 226.25Z" fill="#3F3F3F"/>
<path d="M195.25 163.75L195.75 164.25L194 166.25L193.75 167L192.75 167.5L193.25 166.25L193.75 164.5L195.25 163.75Z" fill="#B3B3B3"/>
<path d="M230.75 145H231.75V145.75H232.25V147.25L230.25 146.25L230.5 145.25L230.75 145Z" fill="#646464"/>
<path d="M235 139.5L235.25 140H236.5V140.75L235.25 141L234.25 141.5H233.5L233.75 140.75L235 139.5Z" fill="#E1E1E1"/>
<path d="M239.75 135.75H240.25L240.5 136.25L241.25 136.75L240.5 137L240.75 138.5L239.5 138.75V138L238.75 137.5L239.5 137.25L239.75 135.75Z" fill="#E4E4E4"/>
<path d="M63.0005 232.5H64.2505L64.0005 233.75L63.2505 235L62.5005 235.75L62.0005 235.25L62.5005 233.75L63.5005 233.25L63.7505 232.75L63.0005 232.5Z" fill="#232323"/>
<path d="M77.5005 214H79.2505L84.0005 216.5L83.2505 216.75L80.2505 215.25L77.7505 214.5L77.5005 214Z" fill="#6C6C6C"/>
<path d="M142.5 205L142.75 205.75L141 207.75L140.5 207.25L142.25 205.25L142.5 205Z" fill="#F8F8F8"/>
<path d="M193.25 164.75L194 165L192.75 167.5L192.25 167.75L191.5 166.75L192.25 166.5L192.75 165.25L193.25 164.75Z" fill="#393939"/>
<path d="M222.75 151.5L223.5 151.75L223.25 153H222.75V153.5H223.25L223 154L221.25 154.25V154.75H220.75L221 153.5H222L222.75 151.5Z" fill="#9B9B9B"/>
<path d="M61.7505 239.25L62.5005 239.5L62.2505 240.5L61.2505 241.75H60.2505L60.0005 241L61.2505 240.5L61.7505 239.25Z" fill="#F5F5F5"/>
<path d="M137.25 212H137.75L138 213L139.25 212.5L139 213.5L137.5 213.75H137L135.75 214.75L136.75 212.75H137.25V212Z" fill="#636363"/>
<path d="M181.25 173.5L181.75 173.75V174.75V175.5L180 175.75L179.5 176L179.75 174.75L181.25 173.5Z" fill="#F1F1F1"/>
<path d="M78.7505 257L79.7505 257.25V258.5H79.2505V259L78.0005 258.5L77.7505 257.75L78.7505 257Z" fill="#F6F6F6"/>
<path d="M110.75 235.75L112 236L113.25 237V237.5H112.25V237H110.75L110.5 236L110.75 235.75Z" fill="#B7B7B7"/>
<path d="M118.5 229L119.5 229.5L121 230.5L122.5 230.75L122.25 231.75L121 231.25L119.75 230.5L118.25 229.75L118.5 229Z" fill="#E5E5E5"/>
<path d="M87.2505 221.75L88.5005 222L89.5005 222.5L89.7505 223.5L88.7505 223.75L87.5005 222.5L87.2505 221.75Z" fill="#E1E1E1"/>
<path d="M178 178L178.75 178.25L177.75 179.5L176.25 180.25L175.75 181.25H175.25L175.5 180L176.5 179H177.5L178 178Z" fill="#868686"/>
<path d="M248.5 130.25L249.5 130.75L251.5 130.5L250.75 131V132H250.25V133H249.75L249.25 131.75V131L248.25 130.75L248.5 130.25Z" fill="#606060"/>
<path d="M76.2505 227.5L77.7505 228.25L79.0005 228.5L79.2505 229.5L77.2505 229L75.7505 228.25L76.2505 228V227.5Z" fill="#E0E0E0"/>
<path d="M94.2505 219.5L96.5005 220L99.0005 221L99.2505 221.5L96.2505 220.75L95.2505 220.25H93.5005L94.2505 219.5Z" fill="#2F2F2F"/>
<path d="M236 135.75H236.25L236.75 137.5H236.25V138H236.75V138.5L235.5 138.75V138H234.5V137.5H235.5V136L236 135.75Z" fill="#5F5F5F"/>
<path d="M83.2505 254.75H85.2505L85.7505 255L85.2505 256L84.5005 256.25L83.5005 255.75L83.2505 254.75Z" fill="#F6F6F6"/>
<path d="M100.75 250.25L101.75 250.5L102.25 251.25L100.5 251.75L99.5005 252.5V251.5L100.75 250.25Z" fill="#222222"/>
<path d="M82.2505 246L85.0005 247.25L84.2505 248L82.7505 247.5L81.5005 246.5H82.2505V246Z" fill="#EBEBEB"/>
<path d="M75.0005 240.25L76.5005 240.5L79.7505 242.25L79.0005 242.75L75.0005 240.5V240.25Z" fill="#EAEAEA"/>
<path d="M62.5005 230.5H63.7505L64.5005 230.75V231.75L62.7505 232L62.5005 231.75V230.5Z" fill="#EBEBEB"/>
<path d="M99.2505 223.5L100.5 223.75L102.5 224.25V224.75L103.25 225L102.5 225.25L99.0005 224L99.2505 223.5Z" fill="#E2E2E2"/>
<path d="M67.5005 212L68.5005 212.25L69.7505 213.25L69.5005 214L68.2505 213.5L67.2505 212.75L67.5005 212Z" fill="#F3F3F3"/>
<path d="M143.75 204.25L145.5 204.5L145 206L143.75 205.75L143 205.5V205H143.5L143.75 204.25Z" fill="#888888"/>
<path d="M201.5 159.75H203.5L203.25 160.5H201.75L201 161.5H200.25L200 160.5L201.5 159.75Z" fill="#0C0C0C"/>
<path d="M245.75 130H247.25L249.25 131L249 131.5L247.75 131.75L247.25 130.75L245.75 130.25V130Z" fill="#EEEEEE"/>
<path d="M240.75 127L241.5 127.25L241.25 129L239.75 129.5V128.75H240.25L240 127.5L240.75 127Z" fill="#C7C7C7"/>
<path d="M76.7505 253.5L77.2505 254H78.5005L79.2505 254.75V255.25H77.2505L77.0005 254.75L76.2505 254.25H76.7505V253.5Z" fill="#F2F2F2"/>
<path d="M88.2505 219.25L90.0005 219.75L89.7505 220.5L88.5005 220.75L86.7505 220.5L87.2505 220L87.7505 220.25L88.0005 219.5L88.2505 219.25Z" fill="#E6E6E6"/>
<path d="M75.5005 215.25L77.0005 215.5L79.5005 216.25L79.0005 216.5L78.7505 217.25L75.7505 215.75L75.5005 215.25Z" fill="#E4E4E4"/>
<path d="M148.25 199.5L148.5 200.25L148 201.5L146.75 202.25L146.5 201L147.5 200L148.25 199.5Z" fill="#858585"/>
<path d="M72.2505 249.25L72.5005 249.75H73.0005V250.25L74.2505 250.75L76.2505 251L76.0005 251.5H74.7505L74.2505 251.75L72.0005 250L72.2505 249.25Z" fill="#2A2A2A"/>
<path d="M96.7505 239.75L99.2505 240.25L100.25 240.5L100.5 241.25L99.7505 241.5L98.5005 240.75L96.7505 240.25V239.75Z" fill="#848484"/>
<path d="M115.5 233L117 233.25L117.25 234.5L116.5 234.75L115.25 234L115.5 233Z" fill="#757575"/>
<path d="M65.0005 223.25L67.2505 224.5L67.5005 225.5L66.7505 225.75L65.0005 223.75V223.25Z" fill="#EDEDED"/>
<path d="M83.5005 223L86.5005 224.25V225L84.5005 224.5L83.5005 223.75V223Z" fill="#DFDFDF"/>
<path d="M154.5 193.75L154.75 194.25L155.5 194.5L155.75 195.25H154.5L153.25 195.5L153.5 194.5L154.5 193.75Z" fill="#B9B9B9"/>
<path d="M176.5 177L177 177.25L176.25 178.5L174.25 180L173.75 179.75L174.5 178.5L176.5 177Z" fill="#F2F2F2"/>
<path d="M219 143.5H219.5V144.25H220.25L220.5 145.5L219.25 146.25L217.75 146.5L218.25 145.5H219.25V145L219.75 144.75L219 144V143.5Z" fill="#797979"/>
<path d="M92.2505 248.75H93.7505L94.0005 249.5L95.5005 249L95.0005 250L94.2505 250.25V249.75H92.5005L92.2505 248.75Z" fill="#B6B6B6"/>
<path d="M127.75 243.75L128.25 244V247L127.5 248L126.75 247.25H127.5L127.75 243.75Z" fill="#696969"/>
<path d="M57.0005 222.5H57.5005L58.0005 223.5V224.5L58.5005 225.5H57.7505L57.0005 224.75L56.7505 222.75L57.0005 222.5Z" fill="#E5E5E5"/>
<path d="M236.75 137.25L238.25 137.75H238.75V138.25L237.25 139L236 138.75L236.75 138.5V138H236.25V137.5L236.75 137.25Z" fill="#E7E7E7"/>
<path d="M235 131.75H236.5L235.5 133V132.5H234.25V133L233.25 133.25L233.5 132.25L235 131.75Z" fill="#393939"/>
<path d="M87.5005 261.25L88.2505 261.5L88.0005 262.5L86.5005 263.25L86.2505 262.5L86.5005 261.75L87.5005 261.25Z" fill="#F5F5F5"/>
<path d="M91.2505 224.25L92.5005 224.5L93.7505 225.25L93.5005 226.25L92.2505 225.5L91.2505 224.5V224.25Z" fill="#DFDFDF"/>
<path d="M66.5005 213.75L67.5005 214L68.5005 214.5L68.2505 215.75L67.2505 215.25L66.5005 214.5V213.75Z" fill="#E1E1E1"/>
<path d="M218 149.75L218.5 150L218.25 150.75H217.75L217.5 151.5L216.25 151.75V150.75L218 149.75Z" fill="#EEEEEE"/>
<path d="M238.25 139.75H238.75V140.25H239.25L239.5 139.75L239.75 140.75L238 142.25H237.5V141.75L238.25 141.25L238 140.25L238.25 139.75Z" fill="#383838"/>
<path d="M234.25 132.5H235.5L235.25 133.5H234.25V134.25H233.5V133.5L232.75 133.25L233.25 132.75V133.25L234.25 133V132.5Z" fill="#EBEBEB"/>
<path d="M257.5 124.75L260 125L258.75 126.25L258.25 126L258 126.5L257.5 125.75V124.75Z" fill="#2B2B2B"/>
<path d="M101.75 261L102.25 261.25L98.5005 265L98.7505 263.75L101.75 261Z" fill="#373737"/>
<path d="M81.7505 256.75L83.7505 257L84.0005 258L83.0005 258.25L82.0005 257.75L81.7505 256.75Z" fill="#F7F7F7"/>
<path d="M59.5005 234.75H60.2505L60.5005 235.5L59.7505 235.75L59.2505 237L58.2505 237.25L58.0005 236.25L59.0005 236L59.5005 234.75Z" fill="#F1F1F1"/>
<path d="M139.5 209.5L140 210H139.5L139.75 211L139.5 211.25L140.5 211.75H138.25V211L139.5 209.5Z" fill="#454545"/>
<path d="M143 206.75L143.5 207L143.25 208H142.75L142.5 209L141.25 208.75L141.5 208H142V207.5L143 206.75Z" fill="#494949"/>
<path d="M198.25 160.5L198.5 161L198 162.5L196.75 164.5L196.25 164.75L196.75 163.25L198.25 160.5Z" fill="#F1F1F1"/>
<path d="M263.75 119.25L264.5 119.5L264.25 120.5L262.75 121.5L262.5 120.5L263.75 119.25Z" fill="#FDFDFD"/>
<path d="M110.75 259.25L111.25 260L110 261H109.5L109 262.25L108 262L110.75 259.25Z" fill="#181818"/>
<path d="M124.25 238.75L126.25 239L127.5 240L127.25 240.75L126 239.5H124.25L123.75 239L124.25 238.75Z" fill="#E1E1E1"/>
<path d="M94.2505 220L95.5005 220.25V221L96.0005 221.25L95.0005 221.5V221H93.5005L93.2505 220.5L94.2505 220Z" fill="#F8F8F8"/>
<path d="M86.7505 218.75L88.0005 219V219.75L87.7505 220.25L86.2505 220.5L86.0005 219.5L86.7505 218.75Z" fill="#F9F9F9"/>
<path d="M81.5005 250.25L82.5005 250.75L84.2505 251.5L83.0005 252.5L81.2505 251.75L82.0005 251L81.5005 250.25Z" fill="#DFDFDF"/>
<path d="M106.75 241.75H108.25L109.25 242.25L109.5 243.25H109V242.75L106.75 242.5V241.75Z" fill="#C2C2C2"/>
<path d="M61.2505 238L61.7505 239L61.2505 240.5L60.0005 241L60.7505 238.75H61.2505V238Z" fill="#3C3C3C"/>
<path d="M96.0005 221.25L96.5005 221.5H99.2505V222L97.7505 222.25V222.75L96.0005 222.5L95.7505 221.5L96.0005 221.25Z" fill="#DBDBDB"/>
<path d="M131.75 219L132 219.5L130.5 222L129.5 223.25L129.75 222L131.25 219.5L131.75 219Z" fill="#F4F4F4"/>
<path d="M224.25 147.5H225V148H226.5L225.5 148.75L224.5 148.5L224.25 149L223.25 148.25L224.25 147.5Z" fill="#DFDFDF"/>
<path d="M231.25 133.5H231.5L231.25 135.25L232.25 135V135.5H231V136H230.25L230.75 133.75L231.25 133.5Z" fill="#3E3E3E"/>
<path d="M247.25 131.25L248.5 131.75L248.75 132.75L249.25 133.25L248.25 133.75L247.5 133.5H248L247.5 132.25L247.25 131.25Z" fill="#7E7E7E"/>
<path d="M266 110H268.75L269.25 110.25V111.5H268.75V110.5L266.5 110.75L265.5 110.25L266 110Z" fill="#2F2F2F"/>
<path d="M63.2505 217.75L64.5005 218V218.75L65.7505 219.25L65.5005 220L64.2505 219.25L63.2505 218.5V217.75Z" fill="#F5F5F5"/>
<path d="M136.5 212.75L136.75 213.5L135.75 214.75L135 215.75H134.5L134.75 214.5L136 213.25H136.5V212.75Z" fill="#DFDFDF"/>
<path d="M211.75 157L212.75 158L212.25 158.75L210.75 158.25L210.5 157.25H211.5L211.75 157Z" fill="#E7E7E7"/>
<path d="M242.75 133.25L244.25 133.75L245 134.25L244.75 135L243.25 134.5L242.25 134.25L242.75 133.25Z" fill="#F8F8F8"/>
<path d="M89.2505 259.25H90.0005L89.7505 260.25L88.7505 260.75L87.7505 260.5V260L89.2505 259.25Z" fill="#ECECEC"/>
<path d="M114.25 256.25H114.75V257.75L114.5 258H113L113.75 256.75L114.25 256.25Z" fill="#F4F4F4"/>
<path d="M63.5005 242H64.2505V243.25L63.2505 244.75L62.5005 245L62.7505 243.75L63.5005 243.25L63.7505 242.5L63.2505 242.25L63.5005 242Z" fill="#2B2B2B"/>
<path d="M83.0005 239.75L84.2505 240.25L85.7505 241V241.5L84.2505 241.25L82.7505 240.5L83.0005 239.75Z" fill="#EEEEEE"/>
<path d="M146 205.5L146.25 206.25L145 207.5L144 206.5L146 205.5Z" fill="#707070"/>
<path d="M249.75 126H252.5V126.5L251.5 127V127.75H250.75L250.5 126.75L249.75 126Z" fill="#E9E9E9"/>
<path d="M91.5005 257L92.0005 257.25L91.2505 258.5L90.5005 259.25H90.0005L90.2505 258L91.5005 257Z" fill="#DFDFDF"/>
<path d="M115.75 254.75L116.5 255L117 256L114.75 256.25L114.5 255.75L115.75 254.75Z" fill="#353535"/>
<path d="M87.7505 249.25L89.5005 249.75L90.2505 250V250.75L89.0005 250.5L87.2505 249.75L87.7505 249.25Z" fill="#E7E7E7"/>
<path d="M72.7505 243.25H73.0005V244.75L71.2505 246.5L71.0005 246L72.7505 243.25Z" fill="#161616"/>
<path d="M57.0005 225.75L58.2505 227L58.5005 228.25L57.5005 228L57.0005 226.75V225.75Z" fill="#E9E9E9"/>
<path d="M87.0005 225.25H88.2505L89.0005 225.75V226.25H89.5005V226.75L88.2505 226.5L87.0005 225.75V225.25Z" fill="#E0E0E0"/>
<path d="M93.0005 221.5L94.2505 221.75V222.5L92.5005 222.75V221.75L93.0005 221.5Z" fill="#E7E7E7"/>
<path d="M197.75 160.75L198 161.25L197.25 162.75L196.25 163.25L195.5 163.75L196 162.75L196.75 161.5L197.75 160.75Z" fill="#313131"/>
<path d="M121.5 253L122.5 253.25L121.25 254.25L120.25 255L120 254.25L121.5 253Z" fill="#E3E3E3"/>
<path d="M58.7505 239L60.0005 239.5L60.7505 239.25L60.2505 240.75H59.5005L58.7505 240V239Z" fill="#EDEDED"/>
<path d="M104.75 236.5H106.5L107 237.5H105.5L104.5 236.75L104.75 236.5Z" fill="#ECECEC"/>
<path d="M91.7505 235.25H93.7505V236L93.5005 236.25L92.5005 236.5L91.7505 236V235.25Z" fill="#F1F1F1"/>
<path d="M85.2505 218.5H87.0005L86.7505 220L85.7505 220.25L85.0005 219.75L85.7505 218.75L85.2505 218.5Z" fill="#E1E1E1"/>
<path d="M228.75 145.5L229.75 145.75V146.5V147.5H229.25L228.25 146L228.75 145.5Z" fill="#191919"/>
<path d="M216.25 145.5L216.75 145.75L216 148H215.5V146.75H215V146.25H215.5V145.75L216.25 145.5Z" fill="#E4E4E4"/>
<path d="M226.25 144.75L227.25 145L227.5 146H226.75L227 145.5L224.75 146L225 145.25L226 145L226.25 144.75Z" fill="#353535"/>
<path d="M256.75 122L257.75 122.25L258.75 122.75L259 123.25H258.5V123.75L257 123.25L256.75 122Z" fill="#DCDCDC"/>
<path d="M94.0005 259.25L94.2505 260L93.7505 260.5H91.7505L91.0005 259.75H93.2505L94.0005 259.25Z" fill="#2B2B2B"/>
<path d="M97.5005 246L100 246.75L100.75 247V247.5L98.2505 247L97.5005 246.25V246Z" fill="#E7E7E7"/>
<path d="M61.0005 237.5H61.2505V238.75H60.7505L60.5005 239.5L59.5005 239.75L59.7505 238.5L60.5005 238.25L61.0005 237.5Z" fill="#1A1A1A"/>
<path d="M81.0005 229.75L82.2505 230L83.0005 230.5V231L83.5005 231.25L82.0005 231L80.7505 230.25L81.0005 229.75Z" fill="#E7E7E7"/>
<path d="M113.75 226.25L115 226.5L117.5 227.75L117 228.25L114 226.75L113.75 226.25Z" fill="#2F2F2F"/>
<path d="M84.7505 218.25H85.2505V218.75H85.7505L85.2505 219.75L84.0005 219.5L83.7505 218.75L84.7505 218.25Z" fill="#FAFAFA"/>
<path d="M236.5 139.75L237.5 140L237.75 141.25L237.5 141.75L236.5 141.5L236.25 140.75L236.5 139.75Z" fill="#2F2F2F"/>
<path d="M81.2505 255.75L82.0005 256.25L83.2505 256.5L83.0005 257H82.0005L81.7505 257.5L81.2505 257L80.2505 256.5L80.7505 256L81.2505 256.25V255.75Z" fill="#DFDFDF"/>
<path d="M78.2505 248.75H79.5005L79.7505 250L78.0005 249.75L78.2505 248.75Z" fill="#F9F9F9"/>
<path d="M95.0005 245L97.2505 245.75L97.7505 246.5L95.5005 246L95.0005 245.5V245Z" fill="#ECECEC"/>
<path d="M122 233H122.75L123 234L122.75 234.5L121.5 234.25L121.25 233.75H121.75L122 233Z" fill="#7A7A7A"/>
<path d="M58.0005 232L58.7505 232.75V233.75H57.5005V232.5L58.0005 232Z" fill="#F5F5F5"/>
<path d="M82.2505 227.25L84.0005 228.25L84.2505 229L82.5005 228.75L82.0005 227.5L82.2505 227.25Z" fill="#DFDFDF"/>
<path d="M81.5005 224.5L83.0005 225.5L83.2505 226.25L81.5005 226L81.0005 225L81.5005 224.5Z" fill="#E2E2E2"/>
<path d="M64.2505 220.5L65.7505 221.25L65.5005 222.25L64.5005 222L63.7505 220.75L64.2505 220.5Z" fill="#EBEBEB"/>
<path d="M188.25 169.25L189.25 169.5L189 170.5L187.75 171L187.5 170.25L187.75 169.5L188.25 169.25Z" fill="#E3E3E3"/>
<path d="M213.5 155.75H214.25L214.5 157.75L214.75 158.5L213.5 158L213.75 156.25L213.25 156L213.5 155.75Z" fill="#454545"/>
<path d="M239.25 136.5L239.75 137.5L238 138L237.5 137.5L238 136.75L239.25 136.5Z" fill="#2A2A2A"/>
<path d="M227.75 135.75L228.75 136.25L229 136.75L227.25 137.25L227.5 136L227.75 135.75ZM226.75 137.25H227.25L227 138L226.75 137.25Z" fill="#252525"/>
<path d="M243.25 132L244.5 133.25L243.5 133.75L242.25 133.25L242 132.5L243 132.75L243.25 132Z" fill="#505050"/>
<path d="M243.75 131.75H245.25V133L244.75 133.25L243.5 132.5L243.75 131.75Z" fill="#C0C0C0"/>
<path d="M260 118.75L260.75 119L260.5 120.5L259.5 120.75V119.75L260 118.75Z" fill="#EEEEEE"/>
<path d="M90.5005 261.75H92.2505L94.0005 262.25V262.75L91.7505 262.5L90.5005 262V261.75Z" fill="#2B2B2B"/>
<path d="M84.2505 259.75L85.5005 260L85.0005 261L83.7505 260.75L84.2505 259.75Z" fill="#F3F3F3"/>
<path d="M115.5 259.5L116.25 259.75L115.5 260.5L114.25 261L113.5 260.75L114.75 259.75L115.5 259.5Z" fill="#F0F0F0"/>
<path d="M79.2505 258.75L80.7505 260L79.7505 260.25L78.5005 259.5V259L79.2505 258.75Z" fill="#101010"/>
<path d="M114.75 257.5H115.25V258.25L114.5 258.75L112.75 258.5L113 257.75H114.5L114.75 257.5Z" fill="#383838"/>
<path d="M91.2505 255L93.2505 255.5V256.25L92.2505 256.5L91.2505 255.75V255Z" fill="#9A9A9A"/>
<path d="M97.5005 250L97.7505 250.75L97.0005 251.5L96.0005 251.25V250.5L97.5005 250Z" fill="#F0F0F0"/>
<path d="M80.5005 245.25L81.5005 245.5L82.2505 246V246.5L80.5005 246.25V245.25Z" fill="#F7F7F7"/>
<path d="M123.75 236.75L126.5 237L126.75 237.75L124 237.5L123.75 236.75Z" fill="#8F8F8F"/>
<path d="M114.25 228.25L116.5 229L116.25 229.5L115.75 229.25L115.5 229.75L113.75 228.75L114.25 228.25Z" fill="#292929"/>
<path d="M86.2505 226.75H87.0005V227.25H87.5005V227.75L87.0005 228L87.2505 228.5L86.0005 228L85.2505 227.5H86.2505V226.75Z" fill="#707070"/>
<path d="M85.0005 222L87.0005 222.5L87.2505 223.25L87.7505 223.5L86.2505 223.25L84.7505 222.5L85.0005 222Z" fill="#E3E3E3"/>
<path d="M99.2505 221.5L99.7505 221.75V222.5L100.25 222.75H97.7505V222.25L97.0005 222H99.2505V221.5Z" fill="#383838"/>
<path d="M89.7505 221.25L91.5005 221.5V222.5L90.2505 222.25L89.7505 221.25Z" fill="#EFEFEF"/>
<path d="M77.2505 218.5L81.0005 219L81.2505 219.5H78.2505L77.0005 219L77.2505 218.5Z" fill="#E1E1E1"/>
<path d="M146.25 203.25L147.25 203.75L146.75 204.75L145.5 205L145.25 203.75L146.25 204V203.25Z" fill="#4D4D4D"/>
<path d="M200.75 159L202.25 159.25L201.5 160L199.75 160.75V160L200.5 159.75L200.25 159.25L200.75 159Z" fill="#E9E9E9"/>
<path d="M231.5 143.75H233.5L232.75 144.25L233.25 144.5L233 145.5L232.25 145.25L232 144.25H231.5V143.75Z" fill="#7B7B7B"/>
<path d="M248.75 131.25L249.75 132V133L248.5 132.75V131.5L248.75 131.25Z" fill="#212121"/>
<path d="M96.0005 254.5L97.0005 254.75L96.5005 255.75H95.2505L95.5005 254.75L96.0005 254.5Z" fill="#EEEEEE"/>
<path d="M104.25 235.5L105 236.25L104.25 236.5L104.5 237L103.5 236.75L102 236.25V236H104.25V235.5Z" fill="#454545"/>
<path d="M88.7505 235.75L90.5005 236L91.5005 237L89.2505 236.5L88.7505 236.25V235.75Z" fill="#E7E7E7"/>
<path d="M61.2505 235.75L61.7505 236L60.7505 238.25L60.2505 238L60.5005 236.25L61.2505 235.75Z" fill="#E0E0E0"/>
<path d="M90.2505 216.75L93.2505 218.25L93.5005 218.75L92.2505 218.5L90.2505 217.25V216.75Z" fill="#C1C1C1"/>
<path d="M152.75 196.5L154.25 196.75L154 197.5L153 197.25L152.75 198.25L152.25 198.5V197.25L152.75 196.5Z" fill="#565656"/>
<path d="M229 136L230 136.25L229.5 137.25L228.75 137.5H228L227.5 137.75L228 136.75L228.75 136.25L229 136Z" fill="#DFDFDF"/>
<path d="M254.25 122.75L255.25 123L254.75 123.25L255.75 124.25V125.5L255.25 125.25L255.5 124.75H254.75L254.25 123.5V122.75Z" fill="#5D5D5D"/>
<path d="M267 110.5H268.75V111.5H267.25L267 110.5Z" fill="#F3F3F3"/>
</svg>
