<svg width="44" height="44" viewBox="0 0 44 44" fill="none" xmlns="http://www.w3.org/2000/svg">
<path d="M22 1C17.8466 1 13.7865 2.23163 10.333 4.53914C6.8796 6.84665 4.18798 10.1264 2.59854 13.9636C1.0091 17.8009 0.593229 22.0233 1.40352 26.0969C2.21381 30.1705 4.21386 33.9123 7.15077 36.8492C10.0877 39.7861 13.8295 41.7862 17.9031 42.5965C21.9767 43.4068 26.1991 42.9909 30.0364 41.4015C33.8736 39.812 37.1534 37.1204 39.4609 33.667C41.7684 30.2135 43 26.1534 43 22C43 16.4305 40.7875 11.089 36.8492 7.15076C32.911 3.21249 27.5696 1 22 1Z" stroke="black" stroke-width="2" stroke-miterlimit="10"/>
<path d="M15.3184 15.5917C15.3184 15.5917 15.4186 13.5036 17.6534 11.7055C18.979 10.6376 20.5684 10.3285 22.0002 10.3071C23.3043 10.2904 24.4689 10.5063 25.1657 10.838C26.3589 11.406 28.682 12.7925 28.682 15.7408C28.682 18.8431 26.6536 20.2522 24.3424 21.8022C22.0312 23.3521 21.4036 25.0345 21.4036 26.773" stroke="black" stroke-width="2" stroke-miterlimit="10" stroke-linecap="round"/>
<path d="M21.5 35C22.8807 35 24 33.8807 24 32.5C24 31.1193 22.8807 30 21.5 30C20.1193 30 19 31.1193 19 32.5C19 33.8807 20.1193 35 21.5 35Z" fill="black"/>
</svg>
