<svg width="33" height="44" viewBox="0 0 33 44" fill="none" xmlns="http://www.w3.org/2000/svg">
<path d="M23.5502 17.443V8.51678C23.5502 6.52321 22.7582 4.61128 21.3485 3.20161C19.9389 1.79194 18.027 1 16.0334 1C14.0398 1 12.1279 1.79194 10.7182 3.20161C9.30855 4.61128 8.5166 6.52321 8.5166 8.51678V17.443" stroke="black" stroke-width="2" stroke-linecap="round" stroke-linejoin="round"/>
<path d="M26.557 17.4429H5.51007C3.01923 17.4429 1 19.4621 1 21.9529V38.4899C1 40.9807 3.01923 42.9999 5.51007 42.9999H26.557C29.0479 42.9999 31.0671 40.9807 31.0671 38.4899V21.9529C31.0671 19.4621 29.0479 17.4429 26.557 17.4429Z" stroke="black" stroke-width="2" stroke-linecap="round" stroke-linejoin="round"/>
</svg>
