<svg width="44" height="44" viewBox="0 0 44 44" fill="none" xmlns="http://www.w3.org/2000/svg">
<path d="M35.9252 15.3276C35.3183 15.9306 34.4975 16.2691 33.642 16.2691C32.7864 16.2691 31.9656 15.9306 31.3588 15.3276L28.6774 12.6463C28.0739 12.0395 27.7351 11.2184 27.7351 10.3626C27.7351 9.50671 28.0739 8.68566 28.6774 8.07885L34.7465 2.00676C34.7585 1.99521 34.7675 1.98086 34.7726 1.965C34.7777 1.94914 34.7788 1.93227 34.7758 1.91588C34.7728 1.89949 34.7658 1.8841 34.7554 1.87108C34.745 1.85805 34.7315 1.84781 34.7162 1.84126C30.7987 0.162021 25.7196 1.01779 22.4943 4.21984C19.4083 7.28263 19.2327 11.8894 20.363 15.9099C20.5236 16.4814 20.5232 17.0861 20.3618 17.6574C20.2005 18.2286 19.8845 18.7442 19.4487 19.1473L2.63616 34.5016C2.14012 34.9414 1.73929 35.478 1.45829 36.0784C1.1773 36.6788 1.02208 37.3304 1.00219 37.993C0.982297 38.6557 1.09815 39.3154 1.34262 39.9316C1.5871 40.5478 1.95502 41.1075 2.42378 41.5762C2.89255 42.045 3.45223 42.4129 4.06844 42.6574C4.68464 42.9018 5.34434 43.0177 6.00697 42.9978C6.66959 42.9779 7.32115 42.8227 7.92158 42.5417C8.52201 42.2607 9.05862 41.8599 9.49842 41.3638L25.0253 24.5109C25.4232 24.0825 25.9302 23.7703 26.492 23.608C27.0538 23.4457 27.6491 23.4393 28.2142 23.5896C32.2044 24.6583 36.7456 24.4575 39.7913 21.4512C43.07 18.2219 43.7774 12.5141 42.188 9.24745C42.1809 9.23318 42.1704 9.2208 42.1575 9.21135C42.1447 9.2019 42.1297 9.19563 42.114 9.19307C42.0982 9.19051 42.0821 9.19172 42.0669 9.19662C42.0517 9.20151 42.0378 9.20994 42.0265 9.22121L35.9252 15.3276Z" stroke="black" stroke-width="2" stroke-miterlimit="10" stroke-linecap="round"/>
</svg>
