<svg width="35" height="44" viewBox="0 0 35 44" fill="none" xmlns="http://www.w3.org/2000/svg">
<path d="M33.3077 18.4916V38.1538C33.3077 39.4391 32.7971 40.6718 31.8883 41.5806C30.9795 42.4894 29.7468 43 28.4615 43H5.84615C4.56087 43 3.32824 42.4894 2.41941 41.5806C1.51058 40.6718 1 39.4391 1 38.1538V5.84615C1 4.56087 1.51058 3.32824 2.41941 2.41941C3.32824 1.51058 4.56087 1 5.84615 1H15.8161C16.6727 1.00013 17.4941 1.3404 18.0999 1.94601L32.3617 16.2078C32.9673 16.8136 33.3076 17.635 33.3077 18.4916Z" stroke="black" stroke-width="2" stroke-linejoin="round"/>
<path d="M17.1541 1.80762V13.923C17.1541 14.7799 17.4945 15.6016 18.1003 16.2075C18.7062 16.8134 19.528 17.1538 20.3848 17.1538H32.5002M9.07715 25.2307H25.231M9.07715 33.3076H25.231" stroke="black" stroke-width="2" stroke-linecap="round" stroke-linejoin="round"/>
</svg>
